<?xml version="1.0" encoding="UTF-8"?>
<svg version="1.1" xmlns="http://www.w3.org/2000/svg" width="360" height="93">
<path d="M0 0 C1.093125 0.639375 2.18625 1.27875 3.3125 1.9375 C4.199375 2.618125 5.08625 3.29875 6 4 C6.54914063 4.39445313 7.09828125 4.78890625 7.6640625 5.1953125 C16.36027229 11.89943899 21.90804335 22.32978326 24 33 C25.68206058 48.03916748 22.39733038 60.92833054 13 73 C7.54102694 78.94601899 1.44856996 82.9447837 -6 86 C-7.30324219 86.55107422 -7.30324219 86.55107422 -8.6328125 87.11328125 C-13.33998703 88.35287362 -17.83928869 88.33868443 -22.6875 88.3125 C-24.15437256 88.31056641 -24.15437256 88.31056641 -25.65087891 88.30859375 C-32.44197052 88.21809111 -38.6409921 87.55577351 -45 85 C-45 84.34 -45 83.68 -45 83 C-45.66 82.79375 -46.32 82.5875 -47 82.375 C-55.21756963 78.60861392 -60.51303607 72.79609982 -65 65 C-65 64.34 -65 63.68 -65 63 C-65.66 62.67 -66.32 62.34 -67 62 C-70.28674758 55.47531792 -70.46002682 48.7189238 -70.375 41.5625 C-70.38660156 40.58990234 -70.39820312 39.61730469 -70.41015625 38.61523438 C-70.38343787 31.94899793 -69.2621453 26.26512908 -67 20 C-66.34 20 -65.68 20 -65 20 C-64.814375 19.34 -64.62875 18.68 -64.4375 18 C-59.20733201 7.08486679 -48.95277045 0.21002356 -38 -4 C-25.94288614 -7.52648036 -10.7668222 -6.43044286 0 0 Z " fill="#F40C0C" transform="translate(70,5)"/>
<path d="M0 0 C0.99 0 1.98 0 3 0 C3.33 2.31 3.66 4.62 4 7 C4.66 7 5.32 7 6 7 C6.33 4.69 6.66 2.38 7 0 C13.52135493 0.48306333 13.52135493 0.48306333 15.5625 2.6875 C16.16968172 5.89688908 15.21724827 8.02450424 14 11 C13.34 11 12.68 11 12 11 C12 9.68 12 8.36 12 7 C10.68 7 9.36 7 8 7 C8 7.99 8 8.98 8 10 C7.38125 9.79375 6.7625 9.5875 6.125 9.375 C5.42375 9.25125 4.7225 9.1275 4 9 C3.34 9.66 2.68 10.32 2 11 C2.9178125 11.21914063 3.835625 11.43828125 4.78125 11.6640625 C16.20459567 14.61589342 23.67583755 18.73691285 30 29 C32.25483645 35.76450934 32.16256239 45.00165458 30.1640625 51.875 C25.83297295 60.24650195 18.39293726 65.25315301 10 69 C10.433125 69.62648438 10.86625 70.25296875 11.3125 70.8984375 C11.869375 71.71570313 12.42625 72.53296875 13 73.375 C13.556875 74.18710938 14.11375 74.99921875 14.6875 75.8359375 C16 78 16 78 16 80 C15.01 80 14.02 80 13 80 C13 79.34 13 78.68 13 78 C11.35 78 9.7 78 8 78 C8 78.99 8 79.98 8 81 C7.01 81 6.02 81 5 81 C4.505 80.01 4.505 80.01 4 79 C3.01 79.99 3.01 79.99 2 81 C-1.125 81.125 -1.125 81.125 -4 81 C-4.33 80.01 -4.66 79.02 -5 78 C-3.35 78.33 -1.7 78.66 0 79 C0 78.34 0 77.68 0 77 C-1.32 76.67 -2.64 76.34 -4 76 C-4.5625 74.0625 -4.5625 74.0625 -5 72 C-4 71 -4 71 -1.4375 70.9375 C-0.633125 70.958125 0.17125 70.97875 1 71 C1 70.34 1 69.68 1 69 C0.38253906 68.86464844 -0.23492187 68.72929688 -0.87109375 68.58984375 C-8.98445237 66.52754407 -14.94105776 63.25098365 -19.89453125 56.3671875 C-24.23149905 48.74956255 -25.33766315 41.65427525 -24 33 C-21.79233663 25.81541132 -17.92226727 21.41559474 -12 17 C-11.34 16.34 -10.68 15.68 -10 15 C-10.33 14.67 -10.66 14.34 -11 14 C-12.32 14 -13.64 14 -15 14 C-15 13.34 -15 12.68 -15 12 C-13.68 11.67 -12.36 11.34 -11 11 C-13.97 10.505 -13.97 10.505 -17 10 C-17.042721 8.33388095 -17.04063832 6.66617115 -17 5 C-16 4 -16 4 -12.9375 3.9375 C-11.4834375 3.9684375 -11.4834375 3.9684375 -10 4 C-10.33 4.66 -10.66 5.32 -11 6 C-12.32 6 -13.64 6 -15 6 C-15 6.66 -15 7.32 -15 8 C-13.329375 7.7215625 -13.329375 7.7215625 -11.625 7.4375 C-8 7 -8 7 -6 8 C-6 5.69 -6 3.38 -6 1 C-5.34 1 -4.68 1 -4 1 C-3.67 3.31 -3.34 5.62 -3 8 C-1.68 8 -0.36 8 1 8 C0.67 5.36 0.34 2.72 0 0 Z " fill="#0A5FAD" transform="translate(43,6)"/>
<path d="M0 0 C1.093125 0.639375 2.18625 1.27875 3.3125 1.9375 C4.199375 2.618125 5.08625 3.29875 6 4 C6.54914063 4.39445313 7.09828125 4.78890625 7.6640625 5.1953125 C16.36027229 11.89943899 21.90804335 22.32978326 24 33 C25.68206058 48.03916748 22.39733038 60.92833054 13 73 C7.54102694 78.94601899 1.44856996 82.9447837 -6 86 C-7.30324219 86.55107422 -7.30324219 86.55107422 -8.6328125 87.11328125 C-13.33998703 88.35287362 -17.83928869 88.33868443 -22.6875 88.3125 C-24.15437256 88.31056641 -24.15437256 88.31056641 -25.65087891 88.30859375 C-32.44197052 88.21809111 -38.6409921 87.55577351 -45 85 C-45 84.34 -45 83.68 -45 83 C-45.66 82.79375 -46.32 82.5875 -47 82.375 C-55.21756963 78.60861392 -60.51303607 72.79609982 -65 65 C-65 64.34 -65 63.68 -65 63 C-65.66 62.67 -66.32 62.34 -67 62 C-70.28674758 55.47531792 -70.46002682 48.7189238 -70.375 41.5625 C-70.38660156 40.58990234 -70.39820312 39.61730469 -70.41015625 38.61523438 C-70.38343787 31.94899793 -69.2621453 26.26512908 -67 20 C-66.34 20 -65.68 20 -65 20 C-64.814375 19.34 -64.62875 18.68 -64.4375 18 C-59.20733201 7.08486679 -48.95277045 0.21002356 -38 -4 C-25.94288614 -7.52648036 -10.7668222 -6.43044286 0 0 Z M-57.109375 12.51171875 C-65.87093313 24.04294298 -68.28896305 36.30726374 -66.7265625 50.48046875 C-64.32479539 61.46968617 -57.46326016 71.24760282 -48.4765625 77.85546875 C-40.71922021 82.68888972 -33.50113919 85.57996205 -24.3125 85.5 C-23.13675415 85.49033203 -23.13675415 85.49033203 -21.93725586 85.48046875 C-9.9585602 85.10854316 0.19902423 80.0264899 9 72 C18.58360741 61.25636563 20.967593 49.84004017 20.44140625 35.82421875 C19.70064585 25.19977498 14.54190033 16.37600405 7 9 C-13.12244642 -6.34517497 -39.09114433 -6.34882758 -57.109375 12.51171875 Z " fill="#FAF1F2" transform="translate(70,5)"/>
<path d="M0 0 C11.09121006 0.09239375 18.8482808 3.19495294 28 9.3125 C28.886875 9.89 29.77375 10.4675 30.6875 11.0625 C39.33342495 19.4747513 44.1209719 29.01079973 44.36352539 41.00048828 C44.41232627 52.69401059 44.41232627 52.69401059 42 56.3125 C41.81824219 55.74660156 41.63648438 55.18070313 41.44921875 54.59765625 C41.19785156 53.86417969 40.94648437 53.13070312 40.6875 52.375 C40.44386719 51.64410156 40.20023438 50.91320313 39.94921875 50.16015625 C39.08759559 47.95317976 39.08759559 47.95317976 36 47.3125 C36.33 48.3025 36.66 49.2925 37 50.3125 C37.66 50.3125 38.32 50.3125 39 50.3125 C38.67 51.6325 38.34 52.9525 38 54.3125 C36.35 54.3125 34.7 54.3125 33 54.3125 C33 52.3325 33 50.3525 33 48.3125 C31.02 48.8075 31.02 48.8075 29 49.3125 C28.90203125 48.3946875 28.8040625 47.476875 28.703125 46.53125 C27.41158313 35.93169945 25.79194784 28.764833 17.34765625 21.8515625 C11.60839015 18.08904862 4.79883147 16.04750881 -2 15.3125 C-0.68 13.9925 0.64 12.6725 2 11.3125 C2 11.9725 2 12.6325 2 13.3125 C2.99 13.3125 3.98 13.3125 5 13.3125 C5 12.3225 5 11.3325 5 10.3125 C6.32 10.3125 7.64 10.3125 9 10.3125 C9 11.6325 9 12.9525 9 14.3125 C9.66 14.3125 10.32 14.3125 11 14.3125 C11 13.57 11 12.8275 11 12.0625 C11 9.8125 11 7.5625 11 5.3125 C8.69 4.6525 6.38 3.9925 4 3.3125 C3.67 5.6225 3.34 7.9325 3 10.3125 C2.34 10.3125 1.68 10.3125 1 10.3125 C0.67 8.0025 0.34 5.6925 0 3.3125 C-0.99 3.3125 -1.98 3.3125 -3 3.3125 C-2.67 5.9525 -2.34 8.5925 -2 11.3125 C-3.32 11.3125 -4.64 11.3125 -6 11.3125 C-6.1953125 9.26171875 -6.390625 7.2109375 -6.5859375 5.16015625 C-6.72257812 4.55042969 -6.85921875 3.94070312 -7 3.3125 C-7.66 2.9825 -8.32 2.6525 -9 2.3125 C-6.1196681 -0.5678319 -4.01761583 0.01215005 0 0 Z " fill="#F40909" transform="translate(46,2.6875)"/>
<path d="M0 0 C0.99 0 1.98 0 3 0 C3.33 2.31 3.66 4.62 4 7 C4.66 7 5.32 7 6 7 C6.33 4.69 6.66 2.38 7 0 C13.52135493 0.48306333 13.52135493 0.48306333 15.5625 2.6875 C16.16968172 5.89688908 15.21724827 8.02450424 14 11 C13.34 11 12.68 11 12 11 C12 9.68 12 8.36 12 7 C10.68 7 9.36 7 8 7 C8 7.99 8 8.98 8 10 C7.38125 9.79375 6.7625 9.5875 6.125 9.375 C5.42375 9.25125 4.7225 9.1275 4 9 C3.34 9.66 2.68 10.32 2 11 C2.9178125 11.21914063 3.835625 11.43828125 4.78125 11.6640625 C16.20459567 14.61589342 23.67583755 18.73691285 30 29 C32.25483645 35.76450934 32.16256239 45.00165458 30.1640625 51.875 C25.83297295 60.24650195 18.39293726 65.25315301 10 69 C10.433125 69.62648438 10.86625 70.25296875 11.3125 70.8984375 C11.869375 71.71570313 12.42625 72.53296875 13 73.375 C13.556875 74.18710938 14.11375 74.99921875 14.6875 75.8359375 C16 78 16 78 16 80 C15.01 80 14.02 80 13 80 C13 79.34 13 78.68 13 78 C11.35 78 9.7 78 8 78 C8 78.99 8 79.98 8 81 C7.01 81 6.02 81 5 81 C4.505 80.01 4.505 80.01 4 79 C3.01 79.99 3.01 79.99 2 81 C-1.125 81.125 -1.125 81.125 -4 81 C-4.33 80.01 -4.66 79.02 -5 78 C-3.35 78.33 -1.7 78.66 0 79 C0 78.34 0 77.68 0 77 C-1.32 76.67 -2.64 76.34 -4 76 C-4.5625 74.0625 -4.5625 74.0625 -5 72 C-4 71 -4 71 -1.4375 70.9375 C-0.633125 70.958125 0.17125 70.97875 1 71 C1 70.34 1 69.68 1 69 C0.38253906 68.86464844 -0.23492187 68.72929688 -0.87109375 68.58984375 C-8.98445237 66.52754407 -14.94105776 63.25098365 -19.89453125 56.3671875 C-24.23149905 48.74956255 -25.33766315 41.65427525 -24 33 C-21.79233663 25.81541132 -17.92226727 21.41559474 -12 17 C-11.34 16.34 -10.68 15.68 -10 15 C-10.33 14.67 -10.66 14.34 -11 14 C-12.32 14 -13.64 14 -15 14 C-15 13.34 -15 12.68 -15 12 C-13.68 11.67 -12.36 11.34 -11 11 C-13.97 10.505 -13.97 10.505 -17 10 C-17.042721 8.33388095 -17.04063832 6.66617115 -17 5 C-16 4 -16 4 -12.9375 3.9375 C-11.4834375 3.9684375 -11.4834375 3.9684375 -10 4 C-10.33 4.66 -10.66 5.32 -11 6 C-12.32 6 -13.64 6 -15 6 C-15 6.66 -15 7.32 -15 8 C-13.329375 7.7215625 -13.329375 7.7215625 -11.625 7.4375 C-8 7 -8 7 -6 8 C-6 5.69 -6 3.38 -6 1 C-5.34 1 -4.68 1 -4 1 C-3.67 3.31 -3.34 5.62 -3 8 C-1.68 8 -0.36 8 1 8 C0.67 5.36 0.34 2.72 0 0 Z M-15.91015625 24.26171875 C-20.89069099 31.3851786 -21.65697986 37.38759126 -21 46 C-19.47174799 53.03958603 -15.67960888 57.97662186 -9.9375 62.3125 C-3.48484862 66.01934228 3.7314292 65.69567179 11 65 C17.4124414 62.93654483 22.43965345 58.68286084 26 53 C29.18723056 46.4082277 30.5194389 39.45702078 28.12109375 32.421875 C24.8377197 25.18328139 20.61130513 21.21100314 13.9375 17.125 C3.10930548 13.10100879 -8.47093009 15.45330986 -15.91015625 24.26171875 Z " fill="#F0E6EA" transform="translate(43,6)"/>
<path d="M0 0 C1.4540625 0.0309375 1.4540625 0.0309375 2.9375 0.0625 C2.9375 2.3725 2.9375 4.6825 2.9375 7.0625 C4.2575 7.0625 5.5775 7.0625 6.9375 7.0625 C6.9375 9.0425 6.9375 11.0225 6.9375 13.0625 C5.6175 13.0625 4.2975 13.0625 2.9375 13.0625 C2.9375 17.6825 2.9375 22.3025 2.9375 27.0625 C4.2575 27.3925 5.5775 27.7225 6.9375 28.0625 C6.9375 29.7125 6.9375 31.3625 6.9375 33.0625 C-0.59232573 33.4328193 -0.59232573 33.4328193 -2.671875 31.79492188 C-4.36441723 29.68637558 -4.41568217 28.72024276 -4.35546875 26.05078125 C-4.34580078 25.29345703 -4.33613281 24.53613281 -4.32617188 23.75585938 C-4.30103516 22.97017578 -4.27589844 22.18449219 -4.25 21.375 C-4.23646484 20.57771484 -4.22292969 19.78042969 -4.20898438 18.95898438 C-4.17367089 16.99320033 -4.11986447 15.02776418 -4.0625 13.0625 C-4.7225 13.0625 -5.3825 13.0625 -6.0625 13.0625 C-6.3925 19.6625 -6.7225 26.2625 -7.0625 33.0625 C-9.7025 33.0625 -12.3425 33.0625 -15.0625 33.0625 C-16.5475 33.5575 -16.5475 33.5575 -18.0625 34.0625 C-23.5550604 32.82947624 -23.5550604 32.82947624 -25.23388672 30.29199219 C-26.18447461 27.73431138 -26.29103677 25.80251504 -26.2578125 23.078125 C-26.25136719 22.14355469 -26.24492187 21.20898438 -26.23828125 20.24609375 C-26.22152344 19.27800781 -26.20476562 18.30992188 -26.1875 17.3125 C-26.17847656 16.32894531 -26.16945312 15.34539063 -26.16015625 14.33203125 C-26.13662785 11.90860593 -26.10375368 9.48567778 -26.0625 7.0625 C-23.7525 7.0625 -21.4425 7.0625 -19.0625 7.0625 C-18.7325 13.3325 -18.4025 19.6025 -18.0625 26.0625 C-17.0725 26.3925 -16.0825 26.7225 -15.0625 27.0625 C-14.7325 20.4625 -14.4025 13.8625 -14.0625 7.0625 C-10.7625 7.0625 -7.4625 7.0625 -4.0625 7.0625 C-4.083125 6.093125 -4.10375 5.12375 -4.125 4.125 C-4.0425 0.0825 -4.0425 0.0825 0 0 Z " fill="#015AAC" transform="translate(180.0625,30.9375)"/>
<path d="M0 0 C0.33 1.32 0.66 2.64 1 4 C1.639375 3.319375 2.27875 2.63875 2.9375 1.9375 C6.7091349 -0.44863636 8.62146533 -0.21881607 12.9140625 0.25 C15.71080214 1.25556931 16.46351654 2.47784281 18 5 C18.34057617 7.47363281 18.34057617 7.47363281 18.29296875 10.203125 C18.28330078 11.1828125 18.27363281 12.1625 18.26367188 13.171875 C18.23853516 14.18765625 18.21339844 15.2034375 18.1875 16.25 C18.16719727 17.796875 18.16719727 17.796875 18.14648438 19.375 C18.11117607 21.91719792 18.06186036 24.45833223 18 27 C16.88625 26.979375 15.7725 26.95875 14.625 26.9375 C11.16784079 26.73619282 11.16784079 26.73619282 9 28 C5.86065107 27.21516277 2.90072582 26.45036291 0 25 C-1.14666489 21.29539035 -1.01075162 19.04607835 -0.125 15.25 C2.23622681 11.63871194 2.70876426 11.44596731 6.6875 10.5625 C8.12081782 10.34533063 9.55791216 10.148139 11 10 C10.34 9.01 9.68 8.02 9 7 C8.34 7.66 7.68 8.32 7 9 C4.43359375 9.16015625 4.43359375 9.16015625 1.4375 9.0625 C-0.37430953 9.00831064 -2.18749468 8.97963477 -4 9 C-6.11925604 11.11925604 -5.41831017 15.6196093 -5.5625 18.5625 C-5.60568359 19.36880859 -5.64886719 20.17511719 -5.69335938 21.00585938 C-5.79975262 23.00368805 -5.90040888 25.0018207 -6 27 C-8.31 27 -10.62 27 -13 27 C-13 18.42 -13 9.84 -13 1 C-10.36 1 -7.72 1 -5 1 C-3 0 -3 0 0 0 Z M7 16 C6.67 17.32 6.34 18.64 6 20 C7.32 20.33 8.64 20.66 10 21 C10.33 19.35 10.66 17.7 11 16 C9.68 16 8.36 16 7 16 Z " fill="#015AAC" transform="translate(304,37)"/>
<path d="M0 0 C2.05078125 0.03255208 4.1015625 0.06510417 6.15234375 0.09765625 C9.3121367 11.34181308 11.83624113 22.65265978 14.15234375 34.09765625 C11.51234375 34.09765625 8.87234375 34.09765625 6.15234375 34.09765625 C5.82234375 31.12765625 5.49234375 28.15765625 5.15234375 25.09765625 C3.17234375 25.09765625 1.19234375 25.09765625 -0.84765625 25.09765625 C-0.99203125 26.39703125 -1.13640625 27.69640625 -1.28515625 29.03515625 C-1.72265625 32.97265625 -1.72265625 32.97265625 -2.84765625 34.09765625 C-4.84723989 34.13846408 -6.84810879 34.14019981 -8.84765625 34.09765625 C-8.5052925 26.67190452 -7.75207783 19.81200023 -5.609375 12.68359375 C-4.85653362 10.12779379 -4.26951221 7.5794734 -3.72265625 4.97265625 C-2.63120125 0.13906983 -2.63120125 0.13906983 0 0 Z M1.15234375 12.09765625 C0.82234375 14.40765625 0.49234375 16.71765625 0.15234375 19.09765625 C1.47234375 18.76765625 2.79234375 18.43765625 4.15234375 18.09765625 C3.49234375 16.11765625 2.83234375 14.13765625 2.15234375 12.09765625 C1.82234375 12.09765625 1.49234375 12.09765625 1.15234375 12.09765625 Z " fill="#005AAC" transform="translate(224.84765625,29.90234375)"/>
<path d="M0 0 C2.31 0 4.62 0 7 0 C7 3.3 7 6.6 7 10 C8.0725 9.773125 9.145 9.54625 10.25 9.3125 C14 9 14 9 16.375 10.125 C20.066718 14.38467461 19.18322847 20.8352699 19.1875 26.1875 C19.19974609 27.00669922 19.21199219 27.82589844 19.22460938 28.66992188 C19.22982258 30.78126936 19.12276321 32.89221809 19 35 C18.34 35.66 17.68 36.32 17 37 C15.35 36.67 13.7 36.34 12 36 C11.67 29.73 11.34 23.46 11 17 C9.68 16.67 8.36 16.34 7 16 C7 22.6 7 29.2 7 36 C4.69 36 2.38 36 0 36 C0 24.12 0 12.24 0 0 Z " fill="#015AAC" transform="translate(188,28)"/>
<path d="M0 0 C2.80432309 2.58860593 3.91031421 3.99103488 4.25 7.8125 C4.1675 8.534375 4.085 9.25625 4 10 C1.69 10 -0.62 10 -3 10 C-3 8.68 -3 7.36 -3 6 C-4.32 6 -5.64 6 -7 6 C-7.67154684 8.28341743 -7.67154684 8.28341743 -7 11 C-5.11266664 12.50898682 -3.16520883 13.63709976 -1.04296875 14.7890625 C1.04361383 16.02585141 2.47314876 17.1179598 4 19 C5.53956835 25.81808839 5.53956835 25.81808839 3.6875 29.875 C0.52559727 33.85665529 0.52559727 33.85665529 -2.75 34.75 C-7.0969917 35.08438398 -10.16957805 34.19924197 -13.8125 31.8125 C-15.62242937 29.04997623 -15.69475945 26.23554982 -16 23 C-13.69 23 -11.38 23 -9 23 C-8.67 24.65 -8.34 26.3 -8 28 C-6.35 27.67 -4.7 27.34 -3 27 C-3 25.35 -3 23.7 -3 22 C-3.66 22 -4.32 22 -5 22 C-5 21.34 -5 20.68 -5 20 C-5.7425 19.7525 -6.485 19.505 -7.25 19.25 C-10.85099634 17.61318348 -13.22204346 15.55591308 -15 12 C-15.375 8.6875 -15.375 8.6875 -15 5 C-10.46478258 -0.63837842 -7.00267196 -1.71995452 0 0 Z " fill="#015AAC" transform="translate(127,30)"/>
<path d="M0 0 C1.33332095 2.6666419 0.67102033 4.16680303 0 7 C1.65 6.67 3.3 6.34 5 6 C5.33 5.01 5.66 4.02 6 3 C4.68 3.33 3.36 3.66 2 4 C2.33 2.68 2.66 1.36 3 0 C4.875 0.125 4.875 0.125 7 1 C9.36041452 5.60842835 9.5402806 10.10315416 8 15 C6.25668831 18.20769352 4.21893591 21.10550983 2 24 C1.39285156 24.8353125 0.78570312 25.670625 0.16015625 26.53125 C-2.24412542 29.27900047 -4.63599287 30.92185282 -7.75 32.8125 C-8.73484375 33.41707031 -9.7196875 34.02164063 -10.734375 34.64453125 C-11.48203125 35.09183594 -12.2296875 35.53914063 -13 36 C-13 35.01 -13 34.02 -13 33 C-13.556875 32.9175 -14.11375 32.835 -14.6875 32.75 C-17.73677919 31.76104459 -19.65189963 30.15242534 -22 28 C-22 27.34 -22 26.68 -22 26 C-19.13275314 26.57344937 -18.1385485 26.8614515 -16 29 C-15.99742188 28.40832031 -15.99484375 27.81664063 -15.9921875 27.20703125 C-15.76771725 22.62035578 -15.49002631 20.56003006 -12.375 17 C-8.76125769 14.85852307 -6.16309459 14.24978568 -2 14 C-2.99 13.34 -3.98 12.68 -5 12 C-5 11.34 -5 10.68 -5 10 C-3.68 9.67 -2.36 9.34 -1 9 C-1.33 8.67 -1.66 8.34 -2 8 C-2.1875 5.0625 -2.1875 5.0625 -2 2 C-1.34 1.34 -0.68 0.68 0 0 Z " fill="#F41010" transform="translate(79,50)"/>
<path d="M0 0 C0.144375 1.0725 0.28875 2.145 0.4375 3.25 C0.83749442 5.91662949 1.27591924 8.41399729 2 11 C1.34 11 0.68 11 0 11 C0 13.64 0 16.28 0 19 C-2.31 19 -4.62 19 -7 19 C-7 19.66 -7 20.32 -7 21 C-7.66 21 -8.32 21 -9 21 C-9.33 24.3 -9.66 27.6 -10 31 C-12.52845528 29.73577236 -12.76422764 28.47154472 -14 26 C-16.95664519 24.5216774 -19.74229737 24.93967217 -23 25 C-22.89300781 24.39671875 -22.78601562 23.7934375 -22.67578125 23.171875 C-21.77334438 18.16573478 -21.77334438 18.16573478 -23.4375 13.5625 C-23.953125 13.046875 -24.46875 12.53125 -25 12 C-25 11.34 -25 10.68 -25 10 C-22.84570717 8.6920365 -21.54723536 7.94869669 -19 8.1875 C-16.67095092 9.13367619 -14.93636314 10.40941599 -13 12 C-13.7425 11.071875 -13.7425 11.071875 -14.5 10.125 C-16 8 -16 8 -16 6 C-13.35261084 4.5393715 -12.10551666 4 -9 4 C-7.97895449 3.02149805 -6.9793879 2.02019573 -6 1 C-3 0 -3 0 0 0 Z " fill="#EFF4F9" transform="translate(59,36)"/>
<path d="M0 0 C2.31 0 4.62 0 7 0 C7 6.6 7 13.2 7 20 C7.99 19.67 8.98 19.34 10 19 C10.33 12.73 10.66 6.46 11 0 C13.31 0 15.62 0 18 0 C18 8.58 18 17.16 18 26 C14.3803125 26.0928125 14.3803125 26.0928125 10.6875 26.1875 C9.93170654 26.21481201 9.17591309 26.24212402 8.3972168 26.27026367 C3.47683638 26.33154603 3.47683638 26.33154603 1.29492188 24.81445312 C-0.4710134 22.3400129 -0.34304256 20.69690082 -0.29296875 17.67578125 C-0.2784668 16.13374023 -0.2784668 16.13374023 -0.26367188 14.56054688 C-0.23853516 13.48869141 -0.21339844 12.41683594 -0.1875 11.3125 C-0.16719727 9.68731445 -0.16719727 9.68731445 -0.14648438 8.02929688 C-0.11110643 5.35236595 -0.06174189 2.67643162 0 0 Z " fill="#015AAC" transform="translate(239,38)"/>
<path d="M0 0 C3.06280796 1.32133067 4.23139638 3.02320144 5.96484375 5.84765625 C6.4609375 9.44140625 6.4609375 9.44140625 6.40234375 13.34765625 C6.40105469 14.63671875 6.39976562 15.92578125 6.3984375 17.25390625 C5.95024384 20.96866454 5.21534128 22.89834898 2.96484375 25.84765625 C0.66497644 26.99758991 -0.84984713 27.07934915 -3.41015625 27.16015625 C-4.56644531 27.21623047 -4.56644531 27.21623047 -5.74609375 27.2734375 C-8.99061207 26.66993495 -10.05807707 25.45945934 -12.03515625 22.84765625 C-13.74006506 17.32631976 -14.63553492 11.86069063 -12.97265625 6.28515625 C-8.92347447 1.19102433 -6.46827587 -0.70446569 0 0 Z M-4.03515625 5.84765625 C-6.29195659 7.67773825 -6.29195659 7.67773825 -6.265625 10.37890625 C-6.25144531 11.35859375 -6.23726562 12.33828125 -6.22265625 13.34765625 C-6.21621094 14.32734375 -6.20976562 15.30703125 -6.203125 16.31640625 C-6.19956351 18.84135009 -6.19956351 18.84135009 -5.03515625 20.84765625 C-3.71515625 20.51765625 -2.39515625 20.18765625 -1.03515625 19.84765625 C-1.03515625 15.55765625 -1.03515625 11.26765625 -1.03515625 6.84765625 C-2.02515625 6.51765625 -3.01515625 6.18765625 -4.03515625 5.84765625 Z " fill="#015AAC" transform="translate(146.03515625,37.15234375)"/>
<path d="M0 0 C0.7940625 0.07863281 1.588125 0.15726563 2.40625 0.23828125 C4.5 0.6875 4.5 0.6875 6.5 2.6875 C6.72705078 5.11767578 6.72705078 5.11767578 6.6953125 8.1328125 C6.68886719 9.20917969 6.68242187 10.28554688 6.67578125 11.39453125 C6.65902344 12.52246094 6.64226562 13.65039062 6.625 14.8125 C6.61597656 15.94816406 6.60695313 17.08382812 6.59765625 18.25390625 C6.57403098 21.06531299 6.54109013 23.87630298 6.5 26.6875 C4.22975032 26.76847324 1.95867925 26.82667704 -0.3125 26.875 C-2.20935547 26.92720703 -2.20935547 26.92720703 -4.14453125 26.98046875 C-7.5 26.6875 -7.5 26.6875 -9.39453125 25.38671875 C-11.24364169 22.54444653 -11.38467762 20.03184894 -11.5 16.6875 C-10.625 13.875 -10.625 13.875 -8.5 11.6875 C-5.54135057 10.68208285 -2.59017809 10.12155017 0.5 9.6875 C0.17 8.6975 -0.16 7.7075 -0.5 6.6875 C-1.49 6.3575 -2.48 6.0275 -3.5 5.6875 C-3.5 6.6775 -3.5 7.6675 -3.5 8.6875 C-5.81 8.6875 -8.12 8.6875 -10.5 8.6875 C-10.00233954 5.00481261 -9.43714041 3.03721233 -6.5 0.6875 C-4.02756353 -0.54871824 -2.72682061 -0.29658601 0 0 Z M-3.5 15.6875 C-3.83 17.3375 -4.16 18.9875 -4.5 20.6875 C-2.85 20.3575 -1.2 20.0275 0.5 19.6875 C0.5 18.3675 0.5 17.0475 0.5 15.6875 C-0.82 15.6875 -2.14 15.6875 -3.5 15.6875 Z " fill="#005AAC" transform="translate(353.5,37.3125)"/>
<path d="M0 0 C2.42049032 2.87433225 3 4.24181381 3 8 C0.69 8 -1.62 8 -4 8 C-4 7.01 -4 6.02 -4 5 C-4.99 5 -5.98 5 -7 5 C-5.82648048 8.52055855 -5.09677617 8.82223387 -2 10.625 C1.95652174 12.95652174 1.95652174 12.95652174 3 14 C3.57392389 21.00187149 3.57392389 21.00187149 1.5625 24.5 C-2.25296265 26.73344155 -5.68617417 26.64231598 -10 26 C-12.5 24.875 -12.5 24.875 -14 23 C-14.75 19.8125 -14.75 19.8125 -15 17 C-12.69 17 -10.38 17 -8 17 C-7.67 17.99 -7.34 18.98 -7 20 C-6.01 20 -5.02 20 -4 20 C-4 18.68 -4 17.36 -4 16 C-5.093125 15.7525 -6.18625 15.505 -7.3125 15.25 C-11.12521564 13.95755402 -12.20647966 13.48740066 -14 10 C-14.90544632 7.21401132 -15.18181549 5.6363542 -14.375 2.8125 C-10.6414155 -2.10904321 -5.38791177 -1.30352704 0 0 Z " fill="#005AAC" transform="translate(273,38)"/>
<path d="M0 0 C1.4540625 0.0309375 1.4540625 0.0309375 2.9375 0.0625 C2.9375 2.3725 2.9375 4.6825 2.9375 7.0625 C4.2575 7.0625 5.5775 7.0625 6.9375 7.0625 C6.9375 9.0425 6.9375 11.0225 6.9375 13.0625 C5.6175 13.0625 4.2975 13.0625 2.9375 13.0625 C2.9375 17.6825 2.9375 22.3025 2.9375 27.0625 C4.2575 27.3925 5.5775 27.7225 6.9375 28.0625 C6.6075 29.7125 6.2775 31.3625 5.9375 33.0625 C-0.01953125 33.55078125 -0.01953125 33.55078125 -2.0625 33.0625 C-4.69477352 30.06078459 -5.05775169 28.30366413 -5.13671875 24.29296875 C-5.02483585 22.94379255 -4.89554411 21.59596103 -4.75 20.25 C-4.68876953 19.55712891 -4.62753906 18.86425781 -4.56445312 18.15039062 C-4.41227344 16.45300178 -4.23946065 14.75748451 -4.0625 13.0625 C-5.0525 12.7325 -6.0425 12.4025 -7.0625 12.0625 C-7.0625 10.4125 -7.0625 8.7625 -7.0625 7.0625 C-6.0725 7.0625 -5.0825 7.0625 -4.0625 7.0625 C-4.083125 6.093125 -4.10375 5.12375 -4.125 4.125 C-4.0425 0.0825 -4.0425 0.0825 0 0 Z " fill="#015AAC" transform="translate(283.0625,30.9375)"/>
<path d="M0 0 C1.98 0 3.96 0 6 0 C6 11.88 6 23.76 6 36 C3.69 36 1.38 36 -1 36 C-1.02465098 31.03377651 -1.04283649 26.06758834 -1.05493164 21.10131836 C-1.0599719 19.41055684 -1.06680405 17.71979971 -1.07543945 16.02905273 C-1.08751857 13.60399293 -1.09323123 11.17899056 -1.09765625 8.75390625 C-1.10281754 7.99348526 -1.10797882 7.23306427 -1.11329651 6.44960022 C-1.11349238 4.6326743 -1.06197277 2.81586873 -1 1 C-0.67 0.67 -0.34 0.34 0 0 Z " fill="#005AAC" transform="translate(325,28)"/>
<path d="M0 0 C0.99 0 1.98 0 3 0 C3.33 2.31 3.66 4.62 4 7 C4.66 7 5.32 7 6 7 C6.33 4.69 6.66 2.38 7 0 C13.52135493 0.48306333 13.52135493 0.48306333 15.5625 2.6875 C16.16968172 5.89688908 15.21724827 8.02450424 14 11 C13.34 11 12.68 11 12 11 C12 9.68 12 8.36 12 7 C10.68 7 9.36 7 8 7 C8 7.99 8 8.98 8 10 C7.38125 9.79375 6.7625 9.5875 6.125 9.375 C5.42375 9.25125 4.7225 9.1275 4 9 C3.34 9.66 2.68 10.32 2 11 C4.475 11.495 4.475 11.495 7 12 C7 12.33 7 12.66 7 13 C6.27554688 13.06058594 5.55109375 13.12117188 4.8046875 13.18359375 C0.62641884 13.54571037 -3.48968127 13.91201401 -7.625 14.625 C-8.800625 14.810625 -8.800625 14.810625 -10 15 C-10.33 14.67 -10.66 14.34 -11 14 C-12.32 14 -13.64 14 -15 14 C-15 13.34 -15 12.68 -15 12 C-13.68 11.67 -12.36 11.34 -11 11 C-13.97 10.505 -13.97 10.505 -17 10 C-17.042721 8.33388095 -17.04063832 6.66617115 -17 5 C-16 4 -16 4 -12.9375 3.9375 C-11.4834375 3.9684375 -11.4834375 3.9684375 -10 4 C-10.33 4.66 -10.66 5.32 -11 6 C-12.32 6 -13.64 6 -15 6 C-15 6.66 -15 7.32 -15 8 C-13.329375 7.7215625 -13.329375 7.7215625 -11.625 7.4375 C-8 7 -8 7 -6 8 C-6 5.69 -6 3.38 -6 1 C-5.34 1 -4.68 1 -4 1 C-3.67 3.31 -3.34 5.62 -3 8 C-1.68 8 -0.36 8 1 8 C0.67 5.36 0.34 2.72 0 0 Z " fill="#F51A1A" transform="translate(43,6)"/>
<path d="M0 0 C6.95757849 3.69256959 12.15054031 8.45633939 15.62890625 15.54296875 C16.22967844 17.83725623 15.86918999 19.21478686 15.125 21.4375 C12.37582786 20.06291393 12.11088898 18.47236983 10.875 15.6875 C7.83554078 9.45749733 4.04114496 5.49989342 -2.63671875 2.953125 C-10.09335575 1.23536569 -17.64474653 1.20555311 -24.4375 4.9375 C-28.91370574 8.03923862 -31.51744307 11.58486198 -33.875 16.4375 C-34.24625 17.17742188 -34.6175 17.91734375 -35 18.6796875 C-35.28875 19.25976562 -35.5775 19.83984375 -35.875 20.4375 C-36.205 20.1075 -36.535 19.7775 -36.875 19.4375 C-37.535 20.4275 -38.195 21.4175 -38.875 22.4375 C-38.59499777 15.85744766 -36.21712939 11.37015899 -31.875 6.4375 C-22.61006499 -1.27368814 -11.80506039 -4.82934289 0 0 Z " fill="#F0E8EC" transform="translate(57.875,20.5625)"/>
<path d="M0 0 C2.31 0 4.62 0 7 0 C7 8.58 7 17.16 7 26 C4.69 26 2.38 26 0 26 C0 17.42 0 8.84 0 0 Z " fill="#005AAC" transform="translate(334,38)"/>
<path d="M0 0 C3.82763685 -0.61296675 7.20199941 -0.87525939 11 0 C14.06005058 3.19309625 17 7.43485787 17 12 C16.01 12 15.02 12 14 12 C14 11.34 14 10.68 14 10 C12.35 10 10.7 10 9 10 C9 10.99 9 11.98 9 13 C8.01 13 7.02 13 6 13 C5.67 12.34 5.34 11.68 5 11 C4.34 11.66 3.68 12.32 3 13 C-0.125 13.125 -0.125 13.125 -3 13 C-3.33 12.01 -3.66 11.02 -4 10 C-1.525 10.495 -1.525 10.495 1 11 C1 10.34 1 9.68 1 9 C-0.32 8.67 -1.64 8.34 -3 8 C-3.5625 6.0625 -3.5625 6.0625 -4 4 C-3 3 -3 3 -0.4375 2.9375 C0.7690625 2.9684375 0.7690625 2.9684375 2 3 C2 2.34 2 1.68 2 1 C1.34 0.67 0.68 0.34 0 0 Z " fill="#F51B1B" transform="translate(42,74)"/>
<path d="M0 0 C2.70869429 2.70869429 2.36225554 4.27814652 2.4375 8.0625 C2.29383422 15.72749183 0.33012317 20.43300615 -4.8671875 26 C-11.66814758 32.35109112 -17.59719905 34.36670097 -26.83984375 34.10546875 C-27.55269531 34.07066406 -28.26554687 34.03585938 -29 34 C-28.67 33.34 -28.34 32.68 -28 32 C-26.16395645 31.49178315 -24.30413583 31.06830305 -22.4375 30.6875 C-14.41709398 28.77289001 -8.4949597 25.88349417 -3.9609375 18.80859375 C-0.84355485 12.94132477 -0.49710083 6.50155556 0 0 Z " fill="#F2EBEF" transform="translate(72,40)"/>
<path d="M0 0 C0.144375 1.0725 0.28875 2.145 0.4375 3.25 C0.83749442 5.91662949 1.27591924 8.41399729 2 11 C1.34 11 0.68 11 0 11 C0 13.64 0 16.28 0 19 C-1.98 19 -3.96 19 -6 19 C-7.18681726 15.43954823 -7.09689832 12.56191663 -7.0625 8.8125 C-7.05347656 7.54019531 -7.04445312 6.26789062 -7.03515625 4.95703125 C-7.02355469 3.98121094 -7.01195312 3.00539062 -7 2 C-4.35261084 0.5393715 -3.10551666 0 0 0 Z " fill="#F3F7FB" transform="translate(59,36)"/>
<path d="M0 0 C0.99 0.33 1.98 0.66 3 1 C2.67 2.32 2.34 3.64 2 5 C4.93720508 6.52299523 7.9168649 7.80100302 11 9 C11.66 7.68 12.32 6.36 13 5 C13.22762571 7.73150853 13.17643847 9.6000728 12.0625 12.125 C4.38293773 19.10642024 -7.38649247 17.28000507 -17 17 C-17 16.67 -17 16.34 -17 16 C-16.24074219 15.93941406 -15.48148438 15.87882812 -14.69921875 15.81640625 C-13.20841797 15.69072266 -13.20841797 15.69072266 -11.6875 15.5625 C-10.70136719 15.48128906 -9.71523438 15.40007812 -8.69921875 15.31640625 C-5.90624401 15.08187441 -5.90624401 15.08187441 -3 14 C-3 13.01 -3 12.02 -3 11 C-1.35 11 0.3 11 2 11 C2 11.66 2 12.32 2 13 C2.99 13 3.98 13 5 13 C4.6390625 12.44570312 4.278125 11.89140625 3.90625 11.3203125 C3.4421875 10.59585938 2.978125 9.87140625 2.5 9.125 C2.0359375 8.40570313 1.571875 7.68640625 1.09375 6.9453125 C0 5 0 5 0 3 C-0.66 2.67 -1.32 2.34 -2 2 C-1.34 1.34 -0.68 0.68 0 0 Z " fill="#F41515" transform="translate(54,73)"/>
<path d="M0 0 C0.91007813 0.00902344 1.82015625 0.01804688 2.7578125 0.02734375 C3.45648438 0.03894531 4.15515625 0.05054688 4.875 0.0625 C5.535 2.3725 6.195 4.6825 6.875 7.0625 C6.215 7.0625 5.555 7.0625 4.875 7.0625 C4.875 8.0525 4.875 9.0425 4.875 10.0625 C1.575 10.7225 -1.725 11.3825 -5.125 12.0625 C-6.54758812 8.23929443 -7.36542276 5.14968695 -7.125 1.0625 C-4.60024538 -0.19987731 -2.81299534 -0.03606404 0 0 Z " fill="#F41414" transform="translate(14.125,50.9375)"/>
<path d="M0 0 C3 1 3 1 4.16796875 2.77734375 C4.50441406 3.49019531 4.84085938 4.20304687 5.1875 4.9375 C5.53167969 5.64777344 5.87585937 6.35804687 6.23046875 7.08984375 C7 9 7 9 7 11 C5.56570999 11.67354499 4.12742943 12.33859701 2.6875 13 C1.48673828 13.556875 1.48673828 13.556875 0.26171875 14.125 C-2 15 -2 15 -5 15 C-5.31549831 9.74169479 -4.73345236 6.52070968 -2 2 C-1.34 1.34 -0.68 0.68 0 0 Z " fill="#F2CB10" transform="translate(37,29)"/>
<path d="M0 0 C9.78585462 -0.57563851 9.78585462 -0.57563851 14 3 C14.70340572 4.31432211 15.37619205 5.64608499 16 7 C14.5682384 7.69937202 13.12932968 8.38412718 11.6875 9.0625 C10.88699219 9.44535156 10.08648437 9.82820313 9.26171875 10.22265625 C7 11 7 11 4 10 C2.83203125 8.22265625 2.83203125 8.22265625 1.8125 6.0625 C1.46832031 5.35222656 1.12414063 4.64195313 0.76953125 3.91015625 C0 2 0 2 0 0 Z " fill="#EA0306" transform="translate(41,27)"/>
<path d="M0 0 C2.52349243 3.12432397 4.27256146 6.38060496 6 10 C8.64 9.67 11.28 9.34 14 9 C13.67 9.66 13.34 10.32 13 11 C12.34 11 11.68 11 11 11 C10.67 11.99 10.34 12.98 10 14 C7.69 14.33 5.38 14.66 3 15 C4.98 17.97 4.98 17.97 7 21 C6.01 21 5.02 21 4 21 C3.5875 20.484375 3.175 19.96875 2.75 19.4375 C2.1725 18.963125 1.595 18.48875 1 18 C-1.33944736 18.28730055 -3.6739143 18.61936779 -6 19 C-6.66 18.34 -7.32 17.68 -8 17 C-6.3767313 16.3291288 -4.75132422 15.66342971 -3.125 15 C-2.22007813 14.62875 -1.31515625 14.2575 -0.3828125 13.875 C2 13 2 13 4 13 C1.03 7.06 1.03 7.06 -2 1 C-1.34 0.67 -0.68 0.34 0 0 Z " fill="#226CA3" transform="translate(40,27)"/>
<path d="M0 0 C0.33 0 0.66 0 1 0 C1.22114415 2.79119779 1.42743301 5.5821212 1.625 8.375 C1.68945312 9.1690625 1.75390625 9.963125 1.8203125 10.78125 C1.96058587 12.85028224 1.98758237 14.92625536 2 17 C1.34 17.66 0.68 18.32 0 19 C-0.33 17.02 -0.66 15.04 -1 13 C-2.32 12.67 -3.64 12.34 -5 12 C-5.185625 11.13375 -5.185625 11.13375 -5.375 10.25 C-6.00648824 7.97664233 -6.88858191 6.0746471 -8 4 C-5.35261084 2.5393715 -4.10551666 2 -1 2 C-0.67 1.34 -0.34 0.68 0 0 Z " fill="#3179BC" transform="translate(51,38)"/>
<path d="M0 0 C6.52135493 0.48306333 6.52135493 0.48306333 8.5625 2.6875 C9.16968172 5.89688908 8.21724827 8.02450424 7 11 C6.34 11 5.68 11 5 11 C5 9.68 5 8.36 5 7 C3.68 7 2.36 7 1 7 C1 7.99 1 8.98 1 10 C0.34 10 -0.32 10 -1 10 C-0.67 6.7 -0.34 3.4 0 0 Z " fill="#FDD9D9" transform="translate(50,6)"/>
<path d="M0 0 C-0.47539456 4.278551 -3.02565329 6.09647107 -6 9 C-7.90602601 11.8943358 -9.497481 14.87938363 -11 18 C-11.33 17.67 -11.66 17.34 -12 17 C-12.66 17.99 -13.32 18.98 -14 20 C-13.6686961 12.21435827 -9.87852805 6.68226478 -4.25 1.4375 C-2 0 -2 0 0 0 Z " fill="#F0DBE0" transform="translate(33,23)"/>
<path d="M0 0 C5 1 5 1 7.3125 3.9375 C9 7 9 7 9 9 C8.01 9 7.02 9 6 9 C6 8.34 6 7.68 6 7 C4.35 7 2.7 7 1 7 C1 7.99 1 8.98 1 10 C0.01 10 -0.98 10 -2 10 C-1.34 6.7 -0.68 3.4 0 0 Z " fill="#FDDBDB" transform="translate(50,77)"/>
<path d="M0 0 C3.0831351 1.19899698 6.06279492 2.47700477 9 4 C8.67 4.99 8.34 5.98 8 7 C5.69 7.33 3.38 7.66 1 8 C2.32 8.66 3.64 9.32 5 10 C5 10.66 5 11.32 5 12 C1.51460083 11.35455571 -1.02819057 9.89865603 -4 8 C-3.67 7.01 -3.34 6.02 -3 5 C-1.02 4.67 0.96 4.34 3 4 C2.01 3.34 1.02 2.68 0 2 C0 1.34 0 0.68 0 0 Z " fill="#FDD6D6" transform="translate(74,60)"/>
<path d="M0 0 C1.33332095 2.6666419 0.67102033 4.16680303 0 7 C1.65 6.67 3.3 6.34 5 6 C5.33 5.01 5.66 4.02 6 3 C4.68 3.33 3.36 3.66 2 4 C2.33 2.68 2.66 1.36 3 0 C6.875 0.875 6.875 0.875 8 2 C8.29573841 4.80951486 8.38243085 6.41628976 6.8125 8.8125 C4.3864306 10.40199375 2.84602594 10.36487512 0 10 C-2 8 -2 8 -2.25 5 C-2 2 -2 2 0 0 Z " fill="#FDD0D0" transform="translate(79,50)"/>
<path d="M0 0 C1.4540625 0.0309375 1.4540625 0.0309375 2.9375 0.0625 C2.6075 0.7225 2.2775 1.3825 1.9375 2.0625 C0.6175 2.0625 -0.7025 2.0625 -2.0625 2.0625 C-2.0625 2.7225 -2.0625 3.3825 -2.0625 4.0625 C1.4025 3.5675 1.4025 3.5675 4.9375 3.0625 C5.2675 4.3825 5.5975 5.7025 5.9375 7.0625 C2.87632432 9.68636487 2.20576873 10.0625 -2.0625 10.0625 C-2.0625 9.4025 -2.0625 8.7425 -2.0625 8.0625 C-0.7425 7.7325 0.5775 7.4025 1.9375 7.0625 C-1.0325 6.5675 -1.0325 6.5675 -4.0625 6.0625 C-4.105221 4.39638095 -4.10313832 2.72867115 -4.0625 1.0625 C-3.0625 0.0625 -3.0625 0.0625 0 0 Z " fill="#FDD0D0" transform="translate(30.0625,9.9375)"/>
<path d="M0 0 C2.96175123 0.61277612 4.38058783 1.25372522 7 3 C7 3.66 7 4.32 7 5 C5.35 4.67 3.7 4.34 2 4 C2.99 4.66 3.98 5.32 5 6 C5 6.66 5 7.32 5 8 C3.02 7.34 1.04 6.68 -1 6 C-0.01 6.928125 -0.01 6.928125 1 7.875 C3 10 3 10 3 12 C-1.67692308 10.52307692 -1.67692308 10.52307692 -3.3125 7.875 C-3.539375 7.25625 -3.76625 6.6375 -4 6 C-2.68 4.02 -1.36 2.04 0 0 Z " fill="#FDD4D4" transform="translate(25,70)"/>
<path d="M0 0 C1.4540625 0.0309375 1.4540625 0.0309375 2.9375 0.0625 C3.2675 1.0525 3.5975 2.0425 3.9375 3.0625 C2.2875 2.7325 0.6375 2.4025 -1.0625 2.0625 C-1.0625 2.7225 -1.0625 3.3825 -1.0625 4.0625 C0.5875 4.3925 2.2375 4.7225 3.9375 5.0625 C3.6075 6.7125 3.2775 8.3625 2.9375 10.0625 C0.9575 10.0625 -1.0225 10.0625 -3.0625 10.0625 C-3.3925 9.0725 -3.7225 8.0825 -4.0625 7.0625 C-1.5875 7.5575 -1.5875 7.5575 0.9375 8.0625 C0.9375 7.4025 0.9375 6.7425 0.9375 6.0625 C-0.3825 5.7325 -1.7025 5.4025 -3.0625 5.0625 C-3.625 3.125 -3.625 3.125 -4.0625 1.0625 C-3.0625 0.0625 -3.0625 0.0625 0 0 Z " fill="#FDD3D3" transform="translate(42.0625,76.9375)"/>
<path d="M0 0 C0.33 0 0.66 0 1 0 C1 3.3 1 6.6 1 10 C1.66 10 2.32 10 3 10 C3.66 12.64 4.32 15.28 5 18 C4.01 18.33 3.02 18.66 2 19 C1.34 18.67 0.68 18.34 0 18 C-0.33 18.66 -0.66 19.32 -1 20 C-1.99 20.33 -2.98 20.66 -4 21 C-2.125 15.25 -2.125 15.25 -1 13 C-0.77049681 10.795636 -0.58924067 8.58607827 -0.4375 6.375 C-0.31181641 4.59222656 -0.31181641 4.59222656 -0.18359375 2.7734375 C-0.12300781 1.85820313 -0.06242187 0.94296875 0 0 Z " fill="#F52929" transform="translate(74,42)"/>
<path d="M0 0 C1.99954746 -0.04254356 4.00041636 -0.04080783 6 0 C7 1 7 1 7.125 4 C7 7 7 7 6 8 C4.33382885 8.04063832 2.66611905 8.042721 1 8 C-0.42944945 5.64561267 -1.08661261 4.51967567 -0.625 1.75 C-0.41875 1.1725 -0.2125 0.595 0 0 Z " fill="#045CAD" transform="translate(334,28)"/>
<path d="M0 0 C1.25425781 0.01804687 2.50851563 0.03609375 3.80078125 0.0546875 C5.22970703 0.08949219 5.22970703 0.08949219 6.6875 0.125 C6.6875 0.785 6.6875 1.445 6.6875 2.125 C5.65302734 2.18107422 5.65302734 2.18107422 4.59765625 2.23828125 C-1.79896465 2.68578148 -7.34320248 3.78149801 -13.3125 6.125 C-13.125 4.25 -13.125 4.25 -12.3125 2.125 C-8.32498711 -0.22755863 -4.53920732 -0.084845 0 0 Z " fill="#F5E6E9" transform="translate(46.3125,18.875)"/>
<path d="M0 0 C0.99 0 1.98 0 3 0 C3.1953125 6.0546875 3.1953125 6.0546875 3 8 C1 10 1 10 -1.5 10.25 C-4 10 -4 10 -6 8 C-6.125 4.375 -6.125 4.375 -6 1 C-5.34 1 -4.68 1 -4 1 C-3.67 3.31 -3.34 5.62 -3 8 C-1.68 8 -0.36 8 1 8 C0.67 5.36 0.34 2.72 0 0 Z " fill="#FDD6D6" transform="translate(43,6)"/>
<path d="M0 0 C4.75 1.875 4.75 1.875 7 3 C7 3.66 7 4.32 7 5 C5.02 4.34 3.04 3.68 1 3 C2.32 4.65 3.64 6.3 5 8 C4.071875 7.979375 3.14375 7.95875 2.1875 7.9375 C-1.02286011 7.84230396 -1.02286011 7.84230396 -4 9 C-3.35455571 5.51460083 -1.89865603 2.97180943 0 0 Z " fill="#FDD3D3" transform="translate(64,10)"/>
<path d="M0 0 C0.66 0 1.32 0 2 0 C2 3.3 2 6.6 2 10 C-2.67590167 10 -3.69649386 9.11997802 -7 6 C-7 5.34 -7 4.68 -7 4 C-4.13275314 4.57344937 -3.1385485 4.8614515 -1 7 C-0.67 4.69 -0.34 2.38 0 0 Z " fill="#FDD9D9" transform="translate(64,72)"/>
<path d="M0 0 C1.70884005 1.62339805 3.37446717 3.29319053 5 5 C5 5.66 5 6.32 5 7 C3 7 3 7 1.375 5.5 C0.92125 5.005 0.4675 4.51 0 4 C0.66 5.65 1.32 7.3 2 9 C1.05125 8.67 0.1025 8.34 -0.875 8 C-3.77062452 6.89840809 -3.77062452 6.89840809 -6 7 C-4.60667426 3.63279613 -3.0210714 2.0140476 0 0 Z " fill="#FDD7D7" transform="translate(19,62)"/>
<path d="M0 0 C0 2.64 0 5.28 0 8 C-3.24271506 7.4409112 -4.93057424 6.5867822 -7 4 C-7 3.34 -7 2.68 -7 2 C-4.35261084 0.5393715 -3.10551666 0 0 0 Z " fill="#F0F5FA" transform="translate(50,40)"/>
<path d="M0 0 C0.66 0.66 1.32 1.32 2 2 C1.67 2.66 1.34 3.32 1 4 C0.071875 3.690625 -0.85625 3.38125 -1.8125 3.0625 C-6.77871546 1.6216844 -11.86205306 1.35305964 -17 1 C-17 0.67 -17 0.34 -17 0 C-4.943788 -1.39440174 -4.943788 -1.39440174 0 0 Z " fill="#D3DBE9" transform="translate(59,21)"/>
<path d="M0 0 C1.28132813 0.10183594 2.56265625 0.20367187 3.8828125 0.30859375 C4.87023438 0.39238281 5.85765625 0.47617188 6.875 0.5625 C6.875 0.8925 6.875 1.2225 6.875 1.5625 C1.75404454 3.33915802 -1.69920541 3.83915755 -7.125 2.5625 C-7.785 1.9025 -8.445 1.2425 -9.125 0.5625 C-6.07230154 -0.96384923 -3.36654311 -0.27544444 0 0 Z " fill="#DFD3DD" transform="translate(43.125,70.4375)"/>
<path d="M0 0 C0 0.66 0 1.32 0 2 C-2.31 2.33 -4.62 2.66 -7 3 C-6.67 4.65 -6.34 6.3 -6 8 C-6.66 8 -7.32 8 -8 8 C-8.33 5.69 -8.66 3.38 -9 1 C-6.04335481 -0.4783226 -3.25770263 -0.06032783 0 0 Z " fill="#FDD4D4" transform="translate(16,51)"/>
<path d="M0 0 C0.33 0 0.66 0 1 0 C1 4.29 1 8.58 1 13 C0.34 13 -0.32 13 -1 13 C-1.2236337 11.58566794 -1.42826476 10.16832382 -1.625 8.75 C-1.74101562 7.96109375 -1.85703125 7.1721875 -1.9765625 6.359375 C-2.00319395 3.67847541 -1.36592084 2.27305911 0 0 Z " fill="#E8EEF6" transform="translate(21,39)"/>
<path d="M0 0 C3.12270126 2.51830747 3.94523098 3.7261549 4.75 7.75 C4.8325 8.8225 4.915 9.895 5 11 C4.01 10.67 3.02 10.34 2 10 C1.05078125 7.93359375 1.05078125 7.93359375 0.3125 5.4375 C0.06113281 4.61121094 -0.19023438 3.78492188 -0.44921875 2.93359375 C-0.63097656 2.29550781 -0.81273438 1.65742187 -1 1 C-0.67 0.67 -0.34 0.34 0 0 Z " fill="#F5DFE2" transform="translate(69,31)"/>
<path d="M0 0 C2 1 2 1 3 3 C3.66 3 4.32 3 5 3 C4.67 4.32 4.34 5.64 4 7 C2.35 7 0.7 7 -1 7 C-0.67 4.69 -0.34 2.38 0 0 Z " fill="#F52323" transform="translate(80,50)"/>
<path d="M0 0 C0.66 0 1.32 0 2 0 C2.66 0.66 3.32 1.32 4 2 C4.66 2 5.32 2 6 2 C6.66 3.65 7.32 5.3 8 7 C7.01 7 6.02 7 5 7 C5 6.34 5 5.68 5 5 C3.35 4.67 1.7 4.34 0 4 C0 2.68 0 1.36 0 0 Z " fill="#FBA6A6" transform="translate(51,79)"/>
<path d="M0 0 C2.64465038 3.1254959 3.84414715 6.08788267 5 10 C4.01 10.495 4.01 10.495 3 11 C1.35 7.7 -0.3 4.4 -2 1 C-1.34 0.67 -0.68 0.34 0 0 Z " fill="#296090" transform="translate(40,27)"/>
<path d="M0 0 C-1 3 -1 3 -3.375 4.1875 C-6 5 -6 5 -9 5 C-9 4.34 -9 3.68 -9 3 C-3.375 0 -3.375 0 0 0 Z " fill="#FDD7D7" transform="translate(18,58)"/>
<path d="M0 0 C2.64 0 5.28 0 8 0 C8.33 0.99 8.66 1.98 9 3 C6 5 6 5 2 5 C2 4.34 2 3.68 2 3 C3.32 2.67 4.64 2.34 6 2 C3.03 1.505 3.03 1.505 0 1 C0 0.67 0 0.34 0 0 Z " fill="#FCBEBE" transform="translate(26,15)"/>
<path d="M0 0 C0.66 0 1.32 0 2 0 C7 5.47619048 7 5.47619048 7 8 C4.13792848 6.71700242 1.9754912 5.469364 0 3 C0 2.01 0 1.02 0 0 Z " fill="#FDDDDD" transform="translate(67,69)"/>
<path d="M0 0 C1.485 0.99 1.485 0.99 3 2 C3 2.66 3 3.32 3 4 C3.66 4 4.32 4 5 4 C5.33 3.34 5.66 2.68 6 2 C6 2.66 6 3.32 6 4 C6.66 4.33 7.32 4.66 8 5 C7.34 5 6.68 5 6 5 C5.67 5.66 5.34 6.32 5 7 C5 6.34 5 5.68 5 5 C4.01 5.33 3.02 5.66 2 6 C1.01 4.35 0.02 2.7 -1 1 C-0.67 0.67 -0.34 0.34 0 0 Z " fill="#F52525" transform="translate(19,65)"/>
<path d="M0 0 C0.598125 0.350625 1.19625 0.70125 1.8125 1.0625 C1.8125 1.7225 1.8125 2.3825 1.8125 3.0625 C-0.4975 3.0625 -2.8075 3.0625 -5.1875 3.0625 C-5.1875 2.0725 -5.1875 1.0825 -5.1875 0.0625 C-2.1875 -0.9375 -2.1875 -0.9375 0 0 Z " fill="#F98181" transform="translate(57.1875,7.9375)"/>
<path d="M0 0 C0.33 0.66 0.66 1.32 1 2 C1.66 2.33 2.32 2.66 3 3 C2 4 2 4 -1.0625 4.0625 C-2.031875 4.041875 -3.00125 4.02125 -4 4 C-4.33 3.01 -4.66 2.02 -5 1 C-2.525 1.495 -2.525 1.495 0 2 C0 1.34 0 0.68 0 0 Z " fill="#FCC0C0" transform="translate(43,83)"/>
<path d="M0 0 C-0.99 0.33 -1.98 0.66 -3 1 C-3.33 1.99 -3.66 2.98 -4 4 C-4 3.34 -4 2.68 -4 2 C-5.65 2 -7.3 2 -9 2 C-8 0 -8 0 -6.1875 -0.6875 C-3.81180233 -1.02688538 -2.26664171 -0.72856341 0 0 Z " fill="#274C92" transform="translate(54,37)"/>
<path d="M0 0 C0.66 0 1.32 0 2 0 C3.38938077 1.96147874 4.7260411 3.96166576 6 6 C3 6 3 6 1.3125 4.6875 C0 3 0 3 0 0 Z " fill="#2370B7" transform="translate(41,42)"/>
</svg>
