<?xml version="1.0" encoding="UTF-8"?>
<svg version="1.1" xmlns="http://www.w3.org/2000/svg" width="100" height="100">
<path d="M0 0 C1.05968994 0.00572021 2.11937988 0.01144043 3.21118164 0.01733398 C15.77465276 0.30350247 24.8838804 3.98032736 34.25 12.5 C34.87519531 13.04527344 35.50039062 13.59054687 36.14453125 14.15234375 C44.65666903 22.0339528 50.11388972 32.54880176 50.71875 44.171875 C50.75294526 46.19765486 50.7626697 48.22397117 50.75 50.25 C50.74427979 51.30968994 50.73855957 52.36937988 50.73266602 53.46118164 C50.44649753 66.02465276 46.76967264 75.1338804 38.25 84.5 C37.43208984 85.43779297 37.43208984 85.43779297 36.59765625 86.39453125 C28.7160472 94.90666903 18.20119824 100.36388972 6.578125 100.96875 C4.55234519 101.00294804 2.52602884 101.01266869 0.5 101 C-1.09062256 100.99141968 -1.09062256 100.99141968 -2.71337891 100.98266602 C-15.10680604 100.70052223 -25.36220002 96.91299457 -34.75 88.5 C-34.75 87.84 -34.75 87.18 -34.75 86.5 C-35.41 86.5 -36.07 86.5 -36.75 86.5 C-36.75 85.84 -36.75 85.18 -36.75 84.5 C-37.41 84.5 -38.07 84.5 -38.75 84.5 C-40.17161125 82.54717096 -41.43882304 80.62224419 -42.6875 78.5625 C-43.37714844 77.46035156 -44.06679688 76.35820313 -44.77734375 75.22265625 C-49.22718957 67.25512874 -50.30665133 59.80919231 -50.25 50.75 C-50.24427979 49.69031006 -50.23855957 48.63062012 -50.23266602 47.53881836 C-49.94649753 34.97534724 -46.26967264 25.8661196 -37.75 16.5 C-37.20472656 15.87480469 -36.65945312 15.24960938 -36.09765625 14.60546875 C-26.25497215 3.97536992 -14.17368884 -0.08863464 0 0 Z " fill="#E81F32" transform="translate(49.75,-0.5)"/>
<path d="M0 0 C6.78670264 6.17517996 11.68980127 12.72967719 12.375 22.03125 C12.71329637 30.03789257 12.52253482 37.11788179 8 44 C7.56429687 44.69351563 7.12859375 45.38703125 6.6796875 46.1015625 C2.27153789 52.53312505 -3.88436951 58.04961453 -11.41015625 60.5234375 C-20.63952415 62.22175256 -30.64662676 62.52928018 -38.859375 57.54296875 C-39.56578125 57.03378906 -40.2721875 56.52460937 -41 56 C-41.72703125 55.48050781 -42.4540625 54.96101563 -43.203125 54.42578125 C-48.2770451 50.39483362 -51.32736411 45.86322448 -54 40 C-54.55107422 38.85144531 -54.55107422 38.85144531 -55.11328125 37.6796875 C-57.52993362 30.37650015 -56.9894591 20.17889927 -54.09375 13.046875 C-49.25172404 3.98536928 -42.10035794 -2.35267486 -32.6875 -6.4375 C-20.72117435 -8.26287171 -10.02089819 -7.07661367 0 0 Z " fill="#0763AA" transform="translate(72,23)"/>
<path d="M0 0 C3.65181502 1.60065042 7.02525651 3.32678996 10 6 C10.78515625 8.70703125 10.78515625 8.70703125 11 11 C11.66 11 12.32 11 13 11 C13.04898438 11.66386719 13.09796875 12.32773437 13.1484375 13.01171875 C13.71125812 19.7112236 13.71125812 19.7112236 16 26 C15.01 26 14.02 26 13 26 C12.90912109 26.95712891 12.90912109 26.95712891 12.81640625 27.93359375 C12.73261719 28.75988281 12.64882812 29.58617188 12.5625 30.4375 C12.48128906 31.26121094 12.40007812 32.08492187 12.31640625 32.93359375 C12 35 12 35 11 36 C8.97174509 36.19316713 6.94276079 36.38325788 4.91015625 36.5234375 C2.5989539 36.87245461 2.5989539 36.87245461 1 40 C0.54605448 42.27912938 0.54605448 42.27912938 0.375 44.6875 C0.30023438 45.49574219 0.22546875 46.30398437 0.1484375 47.13671875 C0.09945312 47.75160156 0.05046875 48.36648437 0 49 C-0.42410156 48.57847656 -0.84820312 48.15695313 -1.28515625 47.72265625 C-5.44795428 43.83432842 -8.13759487 42.33821568 -14 42 C-14.99 41.67 -15.98 41.34 -17 41 C-16.484375 40.113125 -15.96875 39.22625 -15.4375 38.3125 C-13.90433061 34.77954445 -13.71788604 33.55046944 -15 30 C-15.66 29.34 -16.32 28.68 -17 28 C-17 27.01 -17 26.02 -17 25 C-17.72896484 24.32904297 -17.72896484 24.32904297 -18.47265625 23.64453125 C-21.1388345 20.7737869 -20.46285014 17.45713013 -20.33984375 13.72265625 C-19.75123053 9.00698482 -17.82360678 6.51698263 -14.234375 3.53125 C-9.76432981 0.36350144 -5.49724613 -1.41158942 0 0 Z " fill="#387CAD" transform="translate(53,27)"/>
<path d="M0 0 C1.05968994 0.00572021 2.11937988 0.01144043 3.21118164 0.01733398 C15.77465276 0.30350247 24.8838804 3.98032736 34.25 12.5 C34.87519531 13.04527344 35.50039062 13.59054687 36.14453125 14.15234375 C44.65666903 22.0339528 50.11388972 32.54880176 50.71875 44.171875 C50.75294526 46.19765486 50.7626697 48.22397117 50.75 50.25 C50.74427979 51.30968994 50.73855957 52.36937988 50.73266602 53.46118164 C50.44649753 66.02465276 46.76967264 75.1338804 38.25 84.5 C37.43208984 85.43779297 37.43208984 85.43779297 36.59765625 86.39453125 C28.7160472 94.90666903 18.20119824 100.36388972 6.578125 100.96875 C4.55234519 101.00294804 2.52602884 101.01266869 0.5 101 C-1.09062256 100.99141968 -1.09062256 100.99141968 -2.71337891 100.98266602 C-15.10680604 100.70052223 -25.36220002 96.91299457 -34.75 88.5 C-34.75 87.84 -34.75 87.18 -34.75 86.5 C-35.41 86.5 -36.07 86.5 -36.75 86.5 C-36.75 85.84 -36.75 85.18 -36.75 84.5 C-37.41 84.5 -38.07 84.5 -38.75 84.5 C-40.17161125 82.54717096 -41.43882304 80.62224419 -42.6875 78.5625 C-43.37714844 77.46035156 -44.06679688 76.35820313 -44.77734375 75.22265625 C-49.22718957 67.25512874 -50.30665133 59.80919231 -50.25 50.75 C-50.24427979 49.69031006 -50.23855957 48.63062012 -50.23266602 47.53881836 C-49.94649753 34.97534724 -46.26967264 25.8661196 -37.75 16.5 C-37.20472656 15.87480469 -36.65945312 15.24960938 -36.09765625 14.60546875 C-26.25497215 3.97536992 -14.17368884 -0.08863464 0 0 Z M-29.75 13.5 C-30.61625 14.0775 -31.4825 14.655 -32.375 15.25 C-40.73379753 23.16886082 -46.45497611 33.9618498 -46.98828125 45.50390625 C-47.31964126 59.11802611 -45.14704661 69.45125445 -36.75 80.5 C-36.028125 81.53125 -35.30625 82.5625 -34.5625 83.625 C-30.79872369 87.96781882 -25.69968923 90.71115736 -20.75 93.5 C-20.00105469 93.93957031 -19.25210937 94.37914063 -18.48046875 94.83203125 C-8.29142637 99.88194192 5.62734367 98.71633467 16.25 95.5 C30.57921569 89.61953077 39.28962364 80.90537918 45.5234375 66.703125 C49.18319685 55.60579021 49.07358356 40.64716712 43.8515625 30.203125 C36.76744725 18.24652073 27.84838768 8.8367831 14.25 4.5 C-2.0979684 1.02370787 -16.31345255 3.55913969 -29.75 13.5 Z " fill="#0B5DA4" transform="translate(49.75,-0.5)"/>
<path d="M0 0 C6.78670264 6.17517996 11.68980127 12.72967719 12.375 22.03125 C12.71329637 30.03789257 12.52253482 37.11788179 8 44 C7.56429687 44.69351563 7.12859375 45.38703125 6.6796875 46.1015625 C2.27153789 52.53312505 -3.88436951 58.04961453 -11.41015625 60.5234375 C-20.63952415 62.22175256 -30.64662676 62.52928018 -38.859375 57.54296875 C-39.56578125 57.03378906 -40.2721875 56.52460937 -41 56 C-41.72703125 55.48050781 -42.4540625 54.96101563 -43.203125 54.42578125 C-48.2770451 50.39483362 -51.32736411 45.86322448 -54 40 C-54.55107422 38.85144531 -54.55107422 38.85144531 -55.11328125 37.6796875 C-57.52993362 30.37650015 -56.9894591 20.17889927 -54.09375 13.046875 C-49.25172404 3.98536928 -42.10035794 -2.35267486 -32.6875 -6.4375 C-20.72117435 -8.26287171 -10.02089819 -7.07661367 0 0 Z M-45.1875 7.375 C-51.51071071 15.12176076 -52.92081583 23.21304313 -52 33 C-49.93732694 41.44950409 -45.48966475 47.91911569 -38.3359375 52.828125 C-30.08348329 57.4878221 -22.47081659 58.56507728 -13.23828125 56.33203125 C-4.96616012 53.43108831 0.95126574 48.56301915 4.9375 40.75 C8.46008165 33.06002514 9.30842997 25.543219 6.875 17.3125 C3.13563892 7.61786016 -3.67248539 2.02620264 -12.875 -2.375 C-25.18498067 -4.83699613 -36.64903847 -2.12613121 -45.1875 7.375 Z " fill="#2062A3" transform="translate(72,23)"/>
<path d="M0 0 C0.66 0 1.32 0 2 0 C1.67 2.64 1.34 5.28 1 8 C2.98491642 7.73323796 2.98491642 7.73323796 5 7 C5.33 6.01 5.66 5.02 6 4 C5.01 4.33 4.02 4.66 3 5 C3.33 3.35 3.66 1.7 4 0 C6.475 0.495 6.475 0.495 9 1 C10.47719568 11.17623691 5.93694846 19.32430772 0.29296875 27.4609375 C-3.63518789 32.26304 -8.35793004 36.34915543 -14 39 C-18.99554836 39.19213648 -21.32237452 37.18064906 -25 34 C-26.485 33.505 -26.485 33.505 -28 33 C-27.34 33.94875 -26.68 34.8975 -26 35.875 C-24 39 -24 39 -24 41 C-25.27875 40.95875 -26.5575 40.9175 -27.875 40.875 C-30.01871492 40.75787127 -30.01871492 40.75787127 -32 41 C-32.66 41.66 -33.32 42.32 -34 43 C-36.75 43.01171875 -36.75 43.01171875 -40 42.6875 C-41.0725 42.58824219 -42.145 42.48898438 -43.25 42.38671875 C-46 42 -46 42 -48 41 C-48 40.34 -48 39.68 -48 39 C-46.02 39 -44.04 39 -42 39 C-43.98 38.01 -45.96 37.02 -48 36 C-47.50390625 34.0625 -47.50390625 34.0625 -46 32 C-43.22884606 31.47044181 -40.73215239 31.17216127 -37.9375 31 C-27.14169395 30.02214759 -17.67425103 26.76877661 -10.4609375 18.1640625 C-9.24846837 16.48362283 -8.11888709 14.74414752 -7 13 C-6.34 12.01 -5.68 11.02 -5 10 C-5 10.66 -5 11.32 -5 12 C-4.01 12 -3.02 12 -2 12 C-2.02320313 11.38511719 -2.04640625 10.77023438 -2.0703125 10.13671875 C-2.08835938 9.32847656 -2.10640625 8.52023438 -2.125 7.6875 C-2.14820313 6.88699219 -2.17140625 6.08648437 -2.1953125 5.26171875 C-2 3 -2 3 0 0 Z " fill="#DF3044" transform="translate(87,53)"/>
<path d="M0 0 C0.598125 0.309375 1.19625 0.61875 1.8125 0.9375 C4.08956772 2.10209704 4.08956772 2.10209704 7 3 C6.67 2.01 6.34 1.02 6 0 C13.56291916 2.3371521 16.76767361 9.25441389 20.625 15.7265625 C25.14139855 24.83634367 24.46613202 34.09728421 24 44 C23.67 42.68 23.34 41.36 23 40 C21.35 40 19.7 40 18 40 C18 40.99 18 41.98 18 43 C18.66 43 19.32 43 20 43 C19.67 44.32 19.34 45.64 19 47 C17.02 47.495 17.02 47.495 15 48 C14.19032562 45.08517222 13.78154007 43.53886783 14.9375 40.6875 C15.288125 40.130625 15.63875 39.57375 16 39 C13.95780294 40.69179328 13.08206694 41.63727666 12.48828125 44.26171875 C12.43027344 45.06222656 12.37226562 45.86273438 12.3125 46.6875 C12.24675781 47.49574219 12.18101563 48.30398437 12.11328125 49.13671875 C12.07589844 49.75160156 12.03851563 50.36648437 12 51 C11.01 51 10.02 51 9 51 C9.23589844 49.52466797 9.23589844 49.52466797 9.4765625 48.01953125 C11.01569176 37.12238656 11.68519448 26.28981571 5 17 C1.59364172 12.32785766 1.59364172 12.32785766 -3 9 C-2.34 7.68 -1.68 6.36 -1 5 C0.65 5.33 2.3 5.66 4 6 C4 5.34 4 4.68 4 4 C2.68 3.34 1.36 2.68 0 2 C0 1.34 0 0.68 0 0 Z " fill="#E71F32" transform="translate(73,14)"/>
<path d="M0 0 C6.5813093 6.49883675 10.62599915 14.76154108 10.93359375 23.9765625 C10.65141112 33.23728348 7.40422477 40.15931607 1.30859375 47.1015625 C-6.43028015 53.96101891 -14.17902032 57.06992435 -24.6015625 56.85546875 C-32.74054947 55.94864902 -40.86234287 51.86939154 -46.09765625 45.53515625 C-51.80001837 37.49873905 -54.59247297 29.43201429 -53.44140625 19.5390625 C-51.42273774 10.46968225 -46.53543488 3.45553982 -39.44140625 -2.4609375 C-27.00739541 -10.30902039 -11.61033015 -9.07666098 0 0 Z M-44.62890625 4.9140625 C-50.95211696 12.66082326 -52.36222208 20.75210563 -51.44140625 30.5390625 C-49.37873319 38.98856659 -44.931071 45.45817819 -37.77734375 50.3671875 C-29.52488954 55.0268846 -21.91222284 56.10413978 -12.6796875 53.87109375 C-4.40756637 50.97015081 1.50985949 46.10208165 5.49609375 38.2890625 C9.0186754 30.59908764 9.86702372 23.0822815 7.43359375 14.8515625 C3.69423267 5.15692266 -3.11389164 -0.43473486 -12.31640625 -4.8359375 C-24.62638692 -7.29793363 -36.09044472 -4.58706871 -44.62890625 4.9140625 Z " fill="#C7DBEB" transform="translate(71.44140625,25.4609375)"/>
<path d="M0 0 C3 1 3 1 4 3 C5.65 3 7.3 3 9 3 C8.33333333 5.66666667 7.66666667 8.33333333 7 11 C9.64 12.65 12.28 14.3 15 16 C14.175 15.21625 13.35 14.4325 12.5 13.625 C10 11 10 11 10 9 C11.32 9.33 12.64 9.66 14 10 C13.34 9.01 12.68 8.02 12 7 C14.92879371 7.62759865 17.36095629 8.58622659 20 10 C20 9.01 20 8.02 20 7 C25.94 8.485 25.94 8.485 32 10 C32 10.33 32 10.66 32 11 C30.02 11.66 28.04 12.32 26 13 C26 13.66 26 14.32 26 15 C27.98 15.99 29.96 16.98 32 18 C28.98968256 18.93423645 28.13349732 19.04449911 25 18 C25 18.66 25 19.32 25 20 C27.29045368 20.22127098 29.58244764 20.4266504 31.875 20.625 C33.78925781 20.79902344 33.78925781 20.79902344 35.7421875 20.9765625 C36.81726562 20.98429687 37.89234375 20.99203125 39 21 C39.66 20.34 40.32 19.68 41 19 C43.72869407 19.03287583 46.2966618 19.56397771 49 20 C48.34 19.05125 47.68 18.1025 47 17.125 C45 14 45 14 45 12 C48.39536357 12.60631492 50.30660868 13.89578803 53 16 C54.31836295 16.69580267 55.64791086 17.37224433 57 18 C50.84400768 24.15599232 40.45641829 23.35791838 32.32226562 23.3828125 C20.28426897 23.16142406 10.99164517 17.80853397 2 10 C-2 5.56756757 -2 5.56756757 -2 2 C-1.34 2 -0.68 2 0 2 C0 1.34 0 0.68 0 0 Z " fill="#E72C3E" transform="translate(14,74)"/>
<path d="M0 0 C0 0.99 0 1.98 0 3 C-1.98 3.33 -3.96 3.66 -6 4 C-6 6.31 -6 8.62 -6 11 C-3.21224271 11 -0.71830747 10.62294546 2 10 C2.66 9.01 3.32 8.02 4 7 C4.32871094 7.85271484 4.32871094 7.85271484 4.6640625 8.72265625 C7.49853496 15.62448147 10.8892984 21.24101176 17.375 25.1875 C18.24125 25.785625 19.1075 26.38375 20 27 C20 28.32 20 29.64 20 31 C19.071875 30.7525 19.071875 30.7525 18.125 30.5 C16.03936614 29.92365356 16.03936614 29.92365356 14 30 C14.99 30.99 15.98 31.98 17 33 C14.03824877 32.38722388 12.61941217 31.74627478 10 30 C10.825 30.78375 11.65 31.5675 12.5 32.375 C15 35 15 35 15 37 C11.54074837 35.7508258 8.85306797 34.32472205 6 32 C6.4640625 30.8553125 6.4640625 30.8553125 6.9375 29.6875 C7.67893593 27.81210323 8.36228217 25.91315348 9 24 C8.2575 24.2475 7.515 24.495 6.75 24.75 C5.8425 24.8325 4.935 24.915 4 25 C1.6875 23.0625 1.6875 23.0625 0 21 C0 21.66 0 22.32 0 23 C-0.66 23 -1.32 23 -2 23 C-2.33 23.66 -2.66 24.32 -3 25 C-3.98163422 23.06374902 -4.96022454 21.12595461 -5.9375 19.1875 C-6.48277344 18.10855469 -7.02804688 17.02960938 -7.58984375 15.91796875 C-9.40868361 12.1543306 -10.1224049 9.44593784 -10.0625 5.3125 C-10.05347656 4.50425781 -10.04445313 3.69601563 -10.03515625 2.86328125 C-10.02355469 2.24839844 -10.01195312 1.63351563 -10 1 C-6.59437148 0.22157062 -3.49234244 -0.09978121 0 0 Z " fill="#DF3145" transform="translate(14,53)"/>
<path d="M0 0 C1.32 0 2.64 0 4 0 C4.66 1.32 5.32 2.64 6 4 C6.66 2.68 7.32 1.36 8 0 C12.27786748 0.49360009 15.09567131 1.04783565 19 3 C18.67 5.97 18.34 8.94 18 12 C16.53949219 11.96519531 15.07898437 11.93039063 13.57421875 11.89453125 C0.12312209 11.45819164 0.12312209 11.45819164 -12.87890625 14.44140625 C-15.53301987 15.14037172 -17.37654112 14.69620789 -20 14 C-19.67 13.34 -19.34 12.68 -19 12 C-16.4375 11.375 -16.4375 11.375 -14 11 C-16.31 11 -18.62 11 -21 11 C-20.25 6.25 -20.25 6.25 -18 4 C-14.875 3.875 -14.875 3.875 -12 4 C-13 6 -13 6 -15 7 C-14.21625 6.979375 -13.4325 6.95875 -12.625 6.9375 C-10 7 -10 7 -8 8 C-8 5.69 -8 3.38 -8 1 C-6.68 1.33 -5.36 1.66 -4 2 C-3.67 3.65 -3.34 5.3 -3 7 C-2.01 7 -1.02 7 0 7 C0 4.69 0 2.38 0 0 Z " fill="#D42C43" transform="translate(47,5)"/>
<path d="M0 0 C1.34919532 1.65385233 2.68133728 3.321702 4 5 C5.03125 5.495 6.0625 5.99 7.125 6.5 C10 8 10 8 11.375 10.6875 C11.58125 11.450625 11.7875 12.21375 12 13 C11.360625 13.474375 10.72125 13.94875 10.0625 14.4375 C7.15149728 18.05420035 7.19350218 21.47204894 7 26 C6.57589844 25.57847656 6.15179688 25.15695313 5.71484375 24.72265625 C1.55204572 20.83432842 -1.13759487 19.33821568 -7 19 C-7.99 18.67 -8.98 18.34 -10 18 C-9.484375 17.113125 -8.96875 16.22625 -8.4375 15.3125 C-6.90433061 11.77954445 -6.71788604 10.55046944 -8 7 C-8.66 6.34 -9.32 5.68 -10 5 C-9.875 3 -9.875 3 -9 1 C-5.88226561 -1.33830079 -3.59962262 -1.34985848 0 0 Z " fill="#F4F8FB" transform="translate(46,50)"/>
<path d="M0 0 C0 3.3 0 6.6 0 10 C-2.1875 10.75 -2.1875 10.75 -5 11 C-7.625 9.125 -7.625 9.125 -10 7 C-10.99 6.67 -11.98 6.34 -13 6 C-12.34 6.94875 -11.68 7.8975 -11 8.875 C-9 12 -9 12 -9 14 C-10.27875 13.95875 -11.5575 13.9175 -12.875 13.875 C-15.01871492 13.75787127 -15.01871492 13.75787127 -17 14 C-17.66 14.66 -18.32 15.32 -19 16 C-21.75 16.01171875 -21.75 16.01171875 -25 15.6875 C-26.0725 15.58824219 -27.145 15.48898438 -28.25 15.38671875 C-31 15 -31 15 -33 14 C-33 13.34 -33 12.68 -33 12 C-31.02 12 -29.04 12 -27 12 C-28.98 11.01 -30.96 10.02 -33 9 C-32.515625 7.078125 -32.515625 7.078125 -31 5 C-28.1541351 4.36358295 -25.63086514 3.98240593 -22.75 3.75 C-21.99847656 3.67265625 -21.24695312 3.5953125 -20.47265625 3.515625 C-16.32139904 3.10991749 -12.16766297 2.7246589 -8 3 C-5.625 5 -5.625 5 -4 7 C-4 5.02 -4 3.04 -4 1 C-2 0 -2 0 0 0 Z " fill="#E23E51" transform="translate(72,80)"/>
<path d="M0 0 C0.66 0 1.32 0 2 0 C1.67 2.64 1.34 5.28 1 8 C2.98491642 7.73323796 2.98491642 7.73323796 5 7 C5.33 6.01 5.66 5.02 6 4 C5.01 4.33 4.02 4.66 3 5 C3.33 3.35 3.66 1.7 4 0 C5.65 0.33 7.3 0.66 9 1 C9.49276798 7.67974371 9.42975032 13.6113708 5 19 C1.875 20.4375 1.875 20.4375 -1 21 C-1.66 21.33 -2.32 21.66 -3 22 C-2.34 22.33 -1.68 22.66 -1 23 C-1 23.99 -1 24.98 -1 26 C-4.82097239 25.46930939 -7.06171403 24.50298434 -10 22 C-9.3125 20.0625 -9.3125 20.0625 -8 18 C-5.375 17.25 -5.375 17.25 -3 17 C-3.99 16.67 -4.98 16.34 -6 16 C-6.33 15.01 -6.66 14.02 -7 13 C-6.34 12.01 -5.68 11.02 -5 10 C-5 10.66 -5 11.32 -5 12 C-4.01 12 -3.02 12 -2 12 C-2.02320312 11.38511719 -2.04640625 10.77023438 -2.0703125 10.13671875 C-2.08835937 9.32847656 -2.10640625 8.52023438 -2.125 7.6875 C-2.14820312 6.88699219 -2.17140625 6.08648437 -2.1953125 5.26171875 C-2 3 -2 3 0 0 Z " fill="#E63144" transform="translate(87,53)"/>
<path d="M0 0 C2.50453915 2.24619127 3.83574156 4.36626338 5.1875 7.4375 C5.53167969 8.19933594 5.87585937 8.96117187 6.23046875 9.74609375 C7 12 7 12 7 16 C5.25705322 16.86846831 3.50531337 17.71930627 1.75 18.5625 C0.77546875 19.03816406 -0.1990625 19.51382813 -1.203125 20.00390625 C-4.09856297 21.03510273 -5.19966161 21.11346788 -8 20 C-8.62460568 10.24921136 -8.62460568 10.24921136 -6.25 5.5 C-4.2795863 3.31065145 -2.47128449 1.58868289 0 0 Z " fill="#F1CF26" transform="translate(41,29)"/>
<path d="M0 0 C0.04898438 0.59167969 0.09796875 1.18335938 0.1484375 1.79296875 C0.56456867 6.19104472 1.04965595 9.96928897 3 14 C2.01 14 1.02 14 0 14 C-0.33 16.97 -0.66 19.94 -1 23 C-2.65 23.33 -4.3 23.66 -6 24 C-9.25050138 19.67452966 -9.36927717 15.90310648 -9.1875 10.6875 C-9.17396484 9.94693359 -9.16042969 9.20636719 -9.14648438 8.44335938 C-9.11135979 6.62858925 -9.05755972 4.81419712 -9 3 C-3.375 0 -3.375 0 0 0 Z " fill="#F3F7FB" transform="translate(66,39)"/>
<path d="M0 0 C6.64787835 -0.73865315 10.31707639 0.86345381 15.99609375 4.296875 C18.21345592 6.18141673 18.66032136 7.15905141 19 10 C17.04414675 11.00484204 15.08523763 12.00373805 13.125 13 C12.03445312 13.556875 10.94390625 14.11375 9.8203125 14.6875 C7 16 7 16 5 16 C3.96728358 13.90163996 2.94916283 11.79609109 1.9375 9.6875 C1.36902344 8.51574219 0.80054688 7.34398437 0.21484375 6.13671875 C-1 3 -1 3 0 0 Z " fill="#E21E33" transform="translate(45,27)"/>
<path d="M0 0 C9.49552643 -0.13565038 17.12412166 2.8244228 25 8 C26.48891332 10.23544367 27 11.33567968 27 14 C24.03824877 13.38722388 22.61941217 12.74627478 20 11 C20.66 11.61875 21.32 12.2375 22 12.875 C24 15 24 15 24 17 C23.236875 16.95875 22.47375 16.9175 21.6875 16.875 C18.77281584 16.77919176 18.77281584 16.77919176 16 19 C12.535 17.02 12.535 17.02 9 15 C9.99 14.67 10.98 14.34 12 14 C11.814375 13.2575 11.62875 12.515 11.4375 11.75 C11 9 11 9 12 5 C8.04 3.68 4.08 2.36 0 1 C0 0.67 0 0.34 0 0 Z " fill="#E4293C" transform="translate(53,3)"/>
<path d="M0 0 C1.1240625 -0.01417969 2.248125 -0.02835937 3.40625 -0.04296875 C6.36976056 0.17779782 8.0067415 0.6414353 10.5 2.1875 C9.84 2.1875 9.18 2.1875 8.5 2.1875 C8.17 5.1575 7.84 8.1275 7.5 11.1875 C6.51 10.5275 5.52 9.8675 4.5 9.1875 C4.3125 5.5625 4.3125 5.5625 4.5 2.1875 C3.18 2.1875 1.86 2.1875 0.5 2.1875 C0.83 4.4975 1.16 6.8075 1.5 9.1875 C0.18 9.5175 -1.14 9.8475 -2.5 10.1875 C-2.768125 9.218125 -3.03625 8.24875 -3.3125 7.25 C-3.704375 6.239375 -4.09625 5.22875 -4.5 4.1875 C-5.49 3.8575 -6.48 3.5275 -7.5 3.1875 C-7.17 5.8275 -6.84 8.4675 -6.5 11.1875 C-7.49 11.6825 -7.49 11.6825 -8.5 12.1875 C-8.83 11.5275 -9.16 10.8675 -9.5 10.1875 C-12.14 10.1875 -14.78 10.1875 -17.5 10.1875 C-17.17 9.5275 -16.84 8.8675 -16.5 8.1875 C-14.4375 7.5625 -14.4375 7.5625 -12.5 7.1875 C-16.12885324 7.03600702 -16.12885324 7.03600702 -19.5 8.1875 C-20.16 7.5275 -20.82 6.8675 -21.5 6.1875 C-19.75197854 5.37075204 -18.00149811 4.55926549 -16.25 3.75 C-15.27546875 3.29753906 -14.3009375 2.84507812 -13.296875 2.37890625 C-8.70450291 0.42265836 -5.00859969 0.02871903 0 0 Z " fill="#E83244" transform="translate(46.5,2.8125)"/>
<path d="M0 0 C0.66 0.66 1.32 1.32 2 2 C0.73549459 3.79613832 -0.53683488 5.58677034 -1.8125 7.375 C-2.52019531 8.37273437 -3.22789063 9.37046875 -3.95703125 10.3984375 C-6 13 -6 13 -9 15 C-15.22303473 11.46800731 -15.22303473 11.46800731 -17 9 C-16.875 6.9375 -16.875 6.9375 -16 5 C-15.01 4.34 -14.02 3.68 -13 3 C-12.071875 3.639375 -11.14375 4.27875 -10.1875 4.9375 C-7.15780057 7.08622093 -7.15780057 7.08622093 -4 8 C-4 7.01 -4 6.02 -4 5 C-4.99 4.67 -5.98 4.34 -7 4 C-4.68143083 2.45428722 -2.49361571 1.20381448 0 0 Z " fill="#E32F42" transform="translate(90,71)"/>
<path d="M0 0 C4.31392226 0.4793247 6.16569547 1.7457985 9 5 C4.25 7.875 4.25 7.875 2 9 C2.66 9.33 3.32 9.66 4 10 C4 10.99 4 11.98 4 13 C0.17902761 12.46930939 -2.06171403 11.50298434 -5 9 C-4.3125 7.0625 -4.3125 7.0625 -3 5 C-0.375 4.25 -0.375 4.25 2 4 C1.34 3.67 0.68 3.34 0 3 C0 2.01 0 1.02 0 0 Z " fill="#FBD2D6" transform="translate(82,66)"/>
<path d="M0 0 C0 3.63 0 7.26 0 11 C-4.93210831 9.76697292 -7.21774571 8.28039122 -10 4 C-10 3.34 -10 2.68 -10 2 C-4.5 -1.125 -4.5 -1.125 0 0 Z " fill="#F0F5FA" transform="translate(56,45)"/>
<path d="M0 0 C4.27786748 0.49360009 7.09567131 1.04783565 11 3 C10.67 5.97 10.34 8.94 10 12 C8.68 11.67 7.36 11.34 6 11 C5.67 9.35 5.34 7.7 5 6 C5.99 6 6.98 6 8 6 C7.67 5.34 7.34 4.68 7 4 C4.97536745 3.34786708 4.97536745 3.34786708 3 3 C3.33 3.99 3.66 4.98 4 6 C3.34 6 2.68 6 2 6 C2 7.32 2 8.64 2 10 C1.01 10 0.02 10 -1 10 C-0.67 6.7 -0.34 3.4 0 0 Z " fill="#FDE3E5" transform="translate(55,5)"/>
<path d="M0 0 C0.94875 0.04125 1.8975 0.0825 2.875 0.125 C1.875 2.125 1.875 2.125 -0.125 3.125 C1.525 3.125 3.175 3.125 4.875 3.125 C5.205 4.445 5.535 5.765 5.875 7.125 C0.58269231 11.18653846 0.58269231 11.18653846 -3 10.875 C-3.70125 10.6275 -4.4025 10.38 -5.125 10.125 C-4.795 9.465 -4.465 8.805 -4.125 8.125 C-1.5625 7.5 -1.5625 7.5 0.875 7.125 C-1.435 7.125 -3.745 7.125 -6.125 7.125 C-5.03177966 0.20127119 -5.03177966 0.20127119 0 0 Z " fill="#FBD1D4" transform="translate(32.125,8.875)"/>
<path d="M0 0 C1.32 0 2.64 0 4 0 C4.1953125 6.0546875 4.1953125 6.0546875 4 8 C2 10 2 10 0.125 10.265625 C-0.57625 10.26046875 -1.2775 10.2553125 -2 10.25 C-2.70125 10.25515625 -3.4025 10.2603125 -4.125 10.265625 C-6 10 -6 10 -8 8 C-8.125 4.375 -8.125 4.375 -8 1 C-6.68 1.33 -5.36 1.66 -4 2 C-3.67 3.65 -3.34 5.3 -3 7 C-2.01 7 -1.02 7 0 7 C0 4.69 0 2.38 0 0 Z " fill="#FCD8DB" transform="translate(47,5)"/>
<path d="M0 0 C0.33 2.97 0.66 5.94 1 9 C-3.455 9.495 -3.455 9.495 -8 10 C-8.33 10.99 -8.66 11.98 -9 13 C-9.33 11.68 -9.66 10.36 -10 9 C-9.34 9 -8.68 9 -8 9 C-8 6.69 -8 4.38 -8 2 C-2.25 0 -2.25 0 0 0 Z " fill="#ED2839" transform="translate(16,55)"/>
<path d="M0 0 C0 2.97 0 5.94 0 9 C-0.99 9.495 -0.99 9.495 -2 10 C-2.33 9.34 -2.66 8.68 -3 8 C-5.64 8 -8.28 8 -11 8 C-10.67 7.34 -10.34 6.68 -10 6 C-7.9375 5.375 -7.9375 5.375 -6 5 C-9.62885324 4.84850702 -9.62885324 4.84850702 -13 6 C-13.66 5.34 -14.32 4.68 -15 4 C-13.25705322 3.13153169 -11.50531337 2.28069373 -9.75 1.4375 C-8.77546875 0.96183594 -7.8009375 0.48617188 -6.796875 -0.00390625 C-4 -1 -4 -1 0 0 Z " fill="#E22E42" transform="translate(40,5)"/>
<path d="M0 0 C2.1875 -0.375 2.1875 -0.375 5 0 C7.08832653 1.82869674 8.38336791 3.69052559 10 6 C10 6.66 10 7.32 10 8 C8.14375 7.938125 8.14375 7.938125 6.25 7.875 C2.98362038 7.86341709 0.7853053 8.1431298 -2 10 C-1.54177532 6.53058454 -1.10868317 3.32604951 0 0 Z " fill="#FAC5C9" transform="translate(53,86)"/>
<path d="M0 0 C3.43927579 1.2419607 6.25207819 2.55740284 9 5 C9 5.66 9 6.32 9 7 C7.02 6.34 5.04 5.68 3 5 C4.32 6.32 5.64 7.64 7 9 C4.03824877 8.38722388 2.61941217 7.74627478 0 6 C1.2375 7.175625 1.2375 7.175625 2.5 8.375 C5 11 5 11 5 13 C1.54074837 11.7508258 -1.14693203 10.32472205 -4 8 C-2.87548273 5.0280615 -1.77706209 2.66559313 0 0 Z " fill="#FDE2E4" transform="translate(24,77)"/>
<path d="M0 0 C0.66 0 1.32 0 2 0 C1.67 2.64 1.34 5.28 1 8 C2.98491642 7.73323796 2.98491642 7.73323796 5 7 C5.33 6.01 5.66 5.02 6 4 C5.01 4.33 4.02 4.66 3 5 C3.33 3.35 3.66 1.7 4 0 C5.32 0.33 6.64 0.66 8 1 C7.69217504 2.64671412 7.37860766 4.29235576 7.0625 5.9375 C6.88847656 6.85402344 6.71445313 7.77054688 6.53515625 8.71484375 C6 11 6 11 5 12 C2.5625 12.1875 2.5625 12.1875 0 12 C-2 10 -2 10 -2.25 6.5625 C-2 3 -2 3 0 0 Z " fill="#FDECEE" transform="translate(87,53)"/>
<path d="M0 0 C1.27875 -0.061875 2.5575 -0.12375 3.875 -0.1875 C4.95394531 -0.23970703 4.95394531 -0.23970703 6.0546875 -0.29296875 C6.69664063 -0.19628906 7.33859375 -0.09960938 8 0 C8.66 0.99 9.32 1.98 10 3 C7.61435923 2.42415568 5.33317216 1.77772405 3 1 C3 1.66 3 2.32 3 3 C5.31 3.66 7.62 4.32 10 5 C9.67 6.32 9.34 7.64 9 9 C1.25 9.125 1.25 9.125 -1 8 C-1 7.34 -1 6.68 -1 6 C0.98 6 2.96 6 5 6 C3.02 5.01 1.04 4.02 -1 3 C-0.67 2.01 -0.34 1.02 0 0 Z " fill="#FCDDDF" transform="translate(40,86)"/>
<path d="M0 0 C0 3.3 0 6.6 0 10 C-2.125 10.8125 -2.125 10.8125 -5 11 C-7.41454116 9.58633421 -8.98775553 8.01224447 -11 6 C-11 5.34 -11 4.68 -11 4 C-8.03824877 4.61277612 -6.61941217 5.25372522 -4 7 C-4 5.02 -4 3.04 -4 1 C-2 0 -2 0 0 0 Z " fill="#FBD4D7" transform="translate(72,80)"/>
<path d="M0 0 C1.46484375 1.23697917 2.9296875 2.47395833 4.39453125 3.7109375 C5.8655046 4.89201099 7.43037794 5.95358529 9 7 C7.73608512 8.00873016 6.46359117 9.00671822 5.1875 10 C4.12595703 10.8353125 4.12595703 10.8353125 3.04296875 11.6875 C1 13 1 13 -2 13 C-2 12.34 -2 11.68 -2 11 C-1.34 11 -0.68 11 0 11 C0 7.37 0 3.74 0 0 Z " fill="#E62235" transform="translate(72,79)"/>
<path d="M0 0 C3 1 3 1 4 3 C5.65 3 7.3 3 9 3 C8.59316505 5.35964273 8.10185661 6.85934088 6.6875 8.8125 C5 10 5 10 3 9.9375 C0.43042555 8.73301198 -0.57005516 7.43090624 -2 5 C-2 4.01 -2 3.02 -2 2 C-1.34 2 -0.68 2 0 2 C0 1.34 0 0.68 0 0 Z " fill="#E82336" transform="translate(14,74)"/>
<path d="M0 0 C3.48330216 0.64505596 6.09432866 1.98217268 9 4 C9 4.66 9 5.32 9 6 C6.03824877 5.38722388 4.61941217 4.74627478 2 3 C2.66 3.61875 3.32 4.2375 4 4.875 C6 7 6 7 6 9 C5.0925 8.835 4.185 8.67 3.25 8.5 C-0.11087503 7.89862854 -0.11087503 7.89862854 -4 8 C-2.87548273 5.0280615 -1.77706209 2.66559313 0 0 Z " fill="#FCE1E3" transform="translate(71,11)"/>
<path d="M0 0 C4 5.41176471 4 5.41176471 4 8 C2 8 2 8 -0.125 6 C-0.74375 5.34 -1.3625 4.68 -2 4 C-1.505 4.61875 -1.01 5.2375 -0.5 5.875 C1 8 1 8 1 10 C0.01 9.67 -0.98 9.34 -2 9 C-2.33 8.34 -2.66 7.68 -3 7 C-4.65 7 -6.3 7 -8 7 C-7.8125 5.1875 -7.8125 5.1875 -7 3 C-2.82142857 0 -2.82142857 0 0 0 Z " fill="#FCE0E2" transform="translate(19,68)"/>
<path d="M0 0 C0 0.99 0 1.98 0 3 C-1.98 3.33 -3.96 3.66 -6 4 C-6 6.31 -6 8.62 -6 11 C-6.66 11 -7.32 11 -8 11 C-8.33 7.7 -8.66 4.4 -9 1 C-5.68756695 0.17189174 -3.34023421 -0.09278428 0 0 Z " fill="#FCDCDF" transform="translate(14,53)"/>
<path d="M0 0 C0.33 0 0.66 0 1 0 C1.09796875 0.76183594 1.1959375 1.52367187 1.296875 2.30859375 C2.28446115 9.12804642 3.81714587 14.88150371 7 21 C6.01 21 5.02 21 4 21 C0.01162482 13.94912244 -0.48817841 8.01426231 0 0 Z " fill="#1564A9" transform="translate(17,48)"/>
<path d="M0 0 C2.57528248 3.86292371 2.29454471 7.08946878 2.25 11.5625 C2.25773437 12.34302734 2.26546875 13.12355469 2.2734375 13.92773438 C2.25335498 19.74664502 2.25335498 19.74664502 0 22 C-1.26798493 17.31315199 -0.91105063 12.96705063 -0.5625 8.1875 C-0.51029297 7.39923828 -0.45808594 6.61097656 -0.40429688 5.79882812 C-0.27540731 3.86548471 -0.13850506 1.93267836 0 0 Z " fill="#23599B" transform="translate(82,38)"/>
<path d="M0 0 C1.52519276 0.08937803 3.04681929 0.24537146 4.5625 0.4375 C5.80193359 0.59025391 5.80193359 0.59025391 7.06640625 0.74609375 C7.70449219 0.82988281 8.34257813 0.91367187 9 1 C8.01 1.495 8.01 1.495 7 2 C6.53348793 4.12576782 6.53348793 4.12576782 6.375 6.5625 C6.30023438 7.38878906 6.22546875 8.21507812 6.1484375 9.06640625 C6.09945312 9.70449219 6.05046875 10.34257812 6 11 C5.01 10.34 4.02 9.68 3 9 C2.8125 5.375 2.8125 5.375 3 2 C1.68 1.67 0.36 1.34 -1 1 C-0.67 0.67 -0.34 0.34 0 0 Z " fill="#EF3948" transform="translate(48,3)"/>
<path d="M0 0 C1.32 0.33 2.64 0.66 4 1 C3.01 4.3 2.02 7.6 1 11 C0.34 10.34 -0.32 9.68 -1 9 C-0.67 8.01 -0.34 7.02 0 6 C-2.31 5.34 -4.62 4.68 -7 4 C-7 3.34 -7 2.68 -7 2 C-4.61435923 2.57584432 -2.33317216 3.22227595 0 4 C0 2.68 0 1.36 0 0 Z " fill="#F03949" transform="translate(50,85)"/>
<path d="M0 0 C4.31392226 0.4793247 6.16569547 1.7457985 9 5 C7 7 7 7 5.0546875 7.1953125 C3.03645833 7.13020833 1.01822917 7.06510417 -1 7 C-1 6.67 -1 6.34 -1 6 C0.65 6 2.3 6 4 6 C4 5.34 4 4.68 4 4 C2.68 3.67 1.36 3.34 0 3 C0 2.01 0 1.02 0 0 Z " fill="#FDEDEF" transform="translate(82,66)"/>
<path d="M0 0 C0.94875 0.04125 1.8975 0.0825 2.875 0.125 C2.545 0.785 2.215 1.445 1.875 2.125 C-0.1875 2.75 -0.1875 2.75 -2.125 3.125 C-0.475 3.455 1.175 3.785 2.875 4.125 C-0.31262365 6.25008244 -2.39012223 6.6270163 -6.125 7.125 C-5.03177966 0.20127119 -5.03177966 0.20127119 0 0 Z " fill="#FDEEEF" transform="translate(32.125,8.875)"/>
<path d="M0 0 C0.33 0 0.66 0 1 0 C1 2.64 1 5.28 1 8 C1.66 8.33 2.32 8.66 3 9 C2.67 9.66 2.34 10.32 2 11 C1.77532169 12.53668865 1.59203195 14.07968054 1.4375 15.625 C1.35371094 16.44226563 1.26992187 17.25953125 1.18359375 18.1015625 C1.12300781 18.72804688 1.06242187 19.35453125 1 20 C0.01 20 -0.98 20 -2 20 C-1.855625 19.113125 -1.71125 18.22625 -1.5625 17.3125 C-0.73256094 11.57406419 -0.40854359 5.78045724 0 0 Z " fill="#D72A41" transform="translate(84,45)"/>
<path d="M0 0 C2.0622048 -0.054348 4.12482816 -0.09294961 6.1875 -0.125 C7.33605469 -0.14820313 8.48460937 -0.17140625 9.66796875 -0.1953125 C12.91740372 -0.00484152 15.08660521 0.60639873 18 2 C18 2.33 18 2.66 18 3 C12.06 2.67 6.12 2.34 0 2 C0 1.34 0 0.68 0 0 Z " fill="#115FA5" transform="translate(43,16)"/>
<path d="M0 0 C0.66 0 1.32 0 2 0 C2 0.66 2 1.32 2 2 C3.32 2.33 4.64 2.66 6 3 C6 3.33 6 3.66 6 4 C4.4840625 4.309375 4.4840625 4.309375 2.9375 4.625 C-1.64907657 5.89800901 -4.6373197 8.74974974 -8 12 C-8.66 11.67 -9.32 11.34 -10 11 C-9.52949219 10.62488281 -9.05898437 10.24976562 -8.57421875 9.86328125 C-4.88211118 6.82856757 -2.35598023 4.21596462 0 0 Z " fill="#DB253A" transform="translate(79,67)"/>
<path d="M0 0 C2.1796875 0.921875 2.1796875 0.921875 4 2 C1.73192796 3.0067004 -0.53907754 4.00551766 -2.8125 5 C-3.77639648 5.42925781 -3.77639648 5.42925781 -4.75976562 5.8671875 C-7.67756469 7.13711041 -9.78265714 8 -13 8 C-12.67 7.01 -12.34 6.02 -12 5 C-10.02416285 4.26480478 -8.01822402 3.60927518 -6 3 C-4.96875 2.4225 -3.9375 1.845 -2.875 1.25 C-1.92625 0.8375 -0.9775 0.425 0 0 Z " fill="#2763A3" transform="translate(62,37)"/>
<path d="M0 0 C1.65 0.33 3.3 0.66 5 1 C5 1.66 5 2.32 5 3 C4.01 3.495 4.01 3.495 3 4 C3.33 5.65 3.66 7.3 4 9 C2.35 8.67 0.7 8.34 -1 8 C-1.08226668 4.95613276 -0.97608217 2.92824652 0 0 Z " fill="#F2525F" transform="translate(58,8)"/>
<path d="M0 0 C1.32 0 2.64 0 4 0 C4.09765625 6.15234375 4.09765625 6.15234375 4 8 C3 9 3 9 -0.0625 9.0625 C-1.031875 9.041875 -2.00125 9.02125 -3 9 C-2.01 8.34 -1.02 7.68 0 7 C0.25015873 3.41642759 0.25015873 3.41642759 0 0 Z " fill="#FDECED" transform="translate(47,5)"/>
<path d="M0 0 C3.58790575 0.29899215 4.78166776 0.76986601 7.3125 3.4375 C9 6 9 6 9 8 C6.03 7.505 6.03 7.505 3 7 C3 5.35 3 3.7 3 2 C2.01 2 1.02 2 0 2 C0 1.34 0 0.68 0 0 Z " fill="#FDEDEE" transform="translate(54,86)"/>
<path d="M0 0 C0.66 0 1.32 0 2 0 C4.1875 2.25 4.1875 2.25 6 5 C5.75 7.3125 5.75 7.3125 5 9 C3.02 7.35 1.04 5.7 -1 4 C-0.67 2.68 -0.34 1.36 0 0 Z " fill="#FCE1E3" transform="translate(74,76)"/>
<path d="M0 0 C0 0.66 0 1.32 0 2 C-4.455 3.485 -4.455 3.485 -9 5 C-9 3.68 -9 2.36 -9 1 C-5.57367167 -0.61798838 -3.61944899 -1.34053666 0 0 Z " fill="#FCE1E3" transform="translate(17,64)"/>
<path d="M0 0 C1.27875 -0.061875 2.5575 -0.12375 3.875 -0.1875 C4.95394531 -0.23970703 4.95394531 -0.23970703 6.0546875 -0.29296875 C6.69664063 -0.19628906 7.33859375 -0.09960938 8 0 C8.66 0.99 9.32 1.98 10 3 C7.61435923 2.42415568 5.33317216 1.77772405 3 1 C3 1.66 3 2.32 3 3 C3.99 3.33 4.98 3.66 6 4 C4.1875 4.625 4.1875 4.625 2 5 C1.01 4.34 0.02 3.68 -1 3 C-0.67 2.01 -0.34 1.02 0 0 Z " fill="#FDE6E8" transform="translate(40,86)"/>
<path d="M0 0 C0.66 0.33 1.32 0.66 2 1 C2 1.99 2 2.98 2 4 C2.66 4 3.32 4 4 4 C3.67 5.32 3.34 6.64 3 8 C1.68 8.33 0.36 8.66 -1 9 C-1.80967438 6.08517222 -2.21845993 4.53886783 -1.0625 1.6875 C-0.711875 1.130625 -0.36125 0.57375 0 0 Z " fill="#F14C5A" transform="translate(89,53)"/>
<path d="M0 0 C-1.49097658 3.7952131 -3.75700849 5.61042731 -7 8 C-7 4 -7 4 -5.1875 1.75 C-3 0 -3 0 0 0 Z " fill="#2869A8" transform="translate(31,23)"/>
<path d="M0 0 C0.66 0.33 1.32 0.66 2 1 C-1.63 4.63 -5.26 8.26 -9 12 C-9.66 11.67 -10.32 11.34 -11 11 C-7.6189962 6.86378916 -4.33409466 3.18683431 0 0 Z " fill="#CF243D" transform="translate(22,11)"/>
<path d="M0 0 C1.29315061 0.95632999 2.58446853 1.91513851 3.875 2.875 C4.59429688 3.40867187 5.31359375 3.94234375 6.0546875 4.4921875 C8 6 8 6 10 8 C9.01 8.495 9.01 8.495 8 9 C4.7 6.69 1.4 4.38 -2 2 C-1.34 1.34 -0.68 0.68 0 0 Z " fill="#D23048" transform="translate(19,83)"/>
<path d="M0 0 C1.71017726 2.5652659 2.90417811 4.87960965 4.125 7.6875 C4.47820313 8.49574219 4.83140625 9.30398437 5.1953125 10.13671875 C5.46085937 10.75160156 5.72640625 11.36648437 6 12 C5.01 12 4.02 12 3 12 C2.29773859 10.75823305 1.61370891 9.50614401 0.9375 8.25 C0.36322266 7.20585938 0.36322266 7.20585938 -0.22265625 6.140625 C-1.1312406 3.63859372 -0.88336837 2.4667645 0 0 Z " fill="#BCD4E8" transform="translate(20,56)"/>
<path d="M0 0 C0.33 0.66 0.66 1.32 1 2 C1.99 2 2.98 2 4 2 C4.33 1.34 4.66 0.68 5 0 C7.475 0.99 7.475 0.99 10 2 C7.42786866 3.61949011 6.32330841 4.04408751 3.25 3.625 C2.5075 3.41875 1.765 3.2125 1 3 C0.67 3.99 0.34 4.98 0 6 C-1 3 -1 3 0 0 Z " fill="#E84D5D" transform="translate(81,63)"/>
<path d="M0 0 C0.33 0 0.66 0 1 0 C1.33 1.65 1.66 3.3 2 5 C3.98 5.66 5.96 6.32 8 7 C3.99799622 8.60080151 0.95443764 7.29279692 -3 6 C-2.01 4.02 -1.02 2.04 0 0 Z " fill="#DB253B" transform="translate(52,9)"/>
<path d="M0 0 C1.79240663 0.11389875 3.58394835 0.24147687 5.375 0.375 C6.87160156 0.47941406 6.87160156 0.47941406 8.3984375 0.5859375 C11 1 11 1 13 3 C9.57056481 4.18771723 7.62215325 3.80226223 4.25 2.5625 C3.45078125 2.27503906 2.6515625 1.98757812 1.828125 1.69140625 C1.22484375 1.46324219 0.6215625 1.23507813 0 1 C0 0.67 0 0.34 0 0 Z " fill="#D82A41" transform="translate(53,3)"/>
<path d="M0 0 C2.64465038 3.1254959 3.84414715 6.08788267 5 10 C2 9 2 9 1.05078125 7.15234375 C0.80714844 6.42144531 0.56351563 5.69054688 0.3125 4.9375 C0.06113281 4.20402344 -0.19023438 3.47054688 -0.44921875 2.71484375 C-0.63097656 2.14894531 -0.81273437 1.58304688 -1 1 C-0.67 0.67 -0.34 0.34 0 0 Z " fill="#276095" transform="translate(43,28)"/>
<path d="M0 0 C0.99 0 1.98 0 3 0 C3 0.66 3 1.32 3 2 C3.66 2 4.32 2 5 2 C5 3.32 5 4.64 5 6 C3.68 5.67 2.36 5.34 1 5 C0.67 3.35 0.34 1.7 0 0 Z " fill="#FBD6D9" transform="translate(60,11)"/>
<path d="M0 0 C1.98 0.99 1.98 0.99 4 2 C4 2.66 4 3.32 4 4 C5.65 4 7.3 4 9 4 C8.01 4.495 8.01 4.495 7 5 C6.67 5.66 6.34 6.32 6 7 C6 6.34 6 5.68 6 5 C5.38125 4.9175 4.7625 4.835 4.125 4.75 C2 4 2 4 0.75 1.9375 C0.5025 1.298125 0.255 0.65875 0 0 Z " fill="#F04453" transform="translate(17,72)"/>
<path d="M0 0 C1.98 0 3.96 0 6 0 C5.67 0.66 5.34 1.32 5 2 C2.9375 2.625 2.9375 2.625 1 3 C1.33 3.66 1.66 4.32 2 5 C1.01 5 0.02 5 -1 5 C-0.67 3.35 -0.34 1.7 0 0 Z " fill="#FCDDE0" transform="translate(29,9)"/>
<path d="M0 0 C0.66 0 1.32 0 2 0 C1.37240135 2.92879371 0.41377341 5.36095629 -1 8 C-1.625 5.6875 -1.625 5.6875 -2 3 C-1.34 2.01 -0.68 1.02 0 0 Z " fill="#FCDADD" transform="translate(87,53)"/>
</svg>
