<?xml version="1.0" standalone="no"?>
<!DOCTYPE svg PUBLIC "-//W3C//DTD SVG 20010904//EN"
 "http://www.w3.org/TR/2001/REC-SVG-20010904/DTD/svg10.dtd">
<svg version="1.0" xmlns="http://www.w3.org/2000/svg"
 width="316.000000pt" height="316.000000pt" viewBox="0 0 316.000000 316.000000"
 preserveAspectRatio="xMidYMid meet">

<g transform="translate(0.000000,316.000000) scale(0.100000,-0.100000)"
fill="#000000" stroke="none">
<path d="M1410 3149 c-469 -54 -880 -304 -1142 -693 -196 -293 -292 -663 -260
-1003 22 -228 65 -380 163 -578 77 -156 170 -286 295 -410 214 -213 483 -361
773 -426 354 -78 717 -33 1046 131 156 78 286 171 410 295 424 425 570 1045
381 1621 -39 116 -136 305 -213 414 -38 52 -113 140 -169 195 -339 338 -818
507 -1284 454z m194 -176 c3 -27 9 -80 12 -120 l7 -72 -35 -35 c-40 -40 -97
-58 -183 -60 -70 -1 -118 16 -140 51 -13 19 -49 231 -41 240 1 1 27 5 58 9
l55 6 13 -101 c7 -61 18 -108 27 -116 17 -17 60 -19 99 -5 l27 11 -7 92 c-3
51 -9 102 -12 114 -6 23 7 29 77 32 36 1 36 1 43 -46z m278 6 c67 -16 134 -37
149 -45 66 -34 77 -103 23 -139 -28 -19 -30 -23 -18 -40 21 -28 16 -137 -6
-130 -8 2 -28 7 -45 11 -43 10 -56 23 -49 50 13 49 -3 72 -58 89 -28 8 -55 15
-59 15 -4 0 -10 -17 -14 -38 -9 -58 -17 -65 -61 -58 -71 12 -70 9 -34 162 32
139 37 154 46 154 3 0 60 -14 126 -31z m-784 -105 c12 -8 22 -18 22 -23 0 -15
-91 -51 -115 -45 -42 11 -125 -43 -94 -62 5 -3 40 3 77 15 117 35 144 37 177
9 55 -47 28 -120 -65 -177 -103 -63 -195 -75 -235 -31 -10 11 -16 22 -14 24
27 22 99 55 104 46 13 -21 74 -11 107 19 54 49 29 56 -87 26 -54 -14 -108 -22
-119 -19 -81 25 -72 112 19 174 84 58 177 76 223 44z m1315 -130 c67 -47 123
-88 124 -92 2 -4 -6 -18 -16 -31 l-18 -24 -83 58 c-78 55 -83 58 -96 40 -8
-10 -14 -22 -14 -27 0 -4 27 -25 59 -48 33 -22 62 -44 66 -50 8 -12 -12 -50
-26 -50 -6 0 -41 21 -77 46 l-66 46 -18 -25 c-10 -14 -26 -35 -36 -46 l-17
-21 -42 28 c-24 15 -43 31 -43 36 0 12 164 246 173 246 4 0 62 -39 130 -86z
m-586 -189 c353 -90 635 -371 729 -730 23 -86 27 -120 27 -245 0 -125 -4 -159
-27 -245 -48 -182 -135 -335 -265 -466 -131 -130 -284 -217 -466 -265 -86 -23
-120 -27 -245 -27 -125 0 -159 4 -245 27 -359 95 -637 372 -731 731 -23 86
-26 121 -26 245 0 124 3 159 26 245 105 401 448 704 855 755 102 13 259 2 368
-25z m-1388 -1114 c5 -25 8 -48 5 -52 -2 -4 -47 -15 -99 -25 -52 -10 -99 -20
-105 -24 -6 -4 -4 -37 7 -94 15 -76 15 -88 3 -97 -8 -5 -24 -8 -35 -7 -16 3
-23 23 -48 146 -16 79 -27 146 -25 148 9 8 273 60 280 55 4 -3 11 -26 17 -50z
m2391 37 c0 -35 -24 -93 -47 -112 -18 -15 -26 -35 -30 -68 -5 -40 -2 -50 20
-72 71 -70 170 12 143 119 -8 32 -21 25 -30 -15 -5 -27 -8 -30 -33 -24 -16 4
-29 7 -30 8 -1 1 8 41 19 89 16 72 23 87 36 83 10 -2 43 -10 75 -17 32 -7 60
-16 62 -20 9 -13 -7 -69 -20 -69 -9 0 -11 -13 -7 -45 9 -86 -42 -196 -107
-230 -39 -20 -96 -19 -131 2 -76 44 -95 180 -40 289 29 58 67 93 103 94 9 0
17 -6 17 -12z m-2306 -343 c11 -27 16 -50 11 -52 -6 -2 -66 -28 -135 -57
l-125 -53 -23 49 c-13 27 -22 51 -19 54 9 10 253 112 262 110 5 -1 18 -24 29
-51z m2231 -112 c63 -42 115 -80 115 -85 0 -5 -14 -29 -30 -54 -30 -42 -33
-44 -83 -45 -29 -1 -79 -4 -111 -8 l-59 -6 71 -48 c40 -26 72 -49 72 -52 0 -8
-52 -85 -57 -85 -2 0 -58 36 -124 81 l-120 80 15 25 c9 13 23 35 31 48 14 20
27 25 93 30 42 4 92 10 110 13 l33 5 -70 47 -70 47 27 42 c15 23 30 42 35 42
4 0 59 -34 122 -77z m-2091 -128 l86 -120 -22 -17 c-13 -10 -25 -18 -28 -18
-3 0 -30 34 -59 75 -55 76 -69 86 -90 61 -10 -12 -3 -27 33 -77 26 -35 45 -68
43 -73 -2 -5 -12 -15 -23 -23 -18 -12 -24 -7 -69 56 l-50 69 -46 -34 -46 -34
-29 43 c-16 23 -29 45 -29 49 0 12 230 177 236 170 4 -4 45 -61 93 -127z
m1806 -247 l94 -111 -38 -33 c-22 -19 -43 -34 -46 -34 -8 0 -190 206 -190 215
0 6 73 75 80 74 3 0 48 -50 100 -111z m-1558 6 c159 -112 153 -105 130 -134
l-19 -23 -88 61 c-68 47 -92 59 -102 50 -7 -6 -13 -14 -13 -18 0 -5 36 -34 80
-65 70 -49 79 -58 70 -75 -6 -10 -14 -22 -20 -25 -5 -3 -46 20 -90 51 -45 31
-82 55 -83 53 -2 -2 -8 -11 -15 -21 -11 -14 -2 -23 70 -74 46 -31 87 -61 92
-65 11 -10 -12 -59 -27 -59 -20 0 -277 186 -272 197 5 14 157 233 162 233 1 0
58 -39 125 -86z m1348 -178 l0 -164 -49 -21 c-27 -11 -55 -21 -61 -21 -13 0
-240 188 -240 199 0 4 21 17 46 30 l47 22 26 -23 c14 -12 52 -47 84 -78 l58
-55 -7 90 c-13 146 -14 137 36 163 24 12 48 22 52 22 4 0 8 -74 8 -164z m-783
-31 c52 -16 103 -61 103 -92 0 -23 -97 -9 -119 17 -19 23 -80 35 -101 20 -13
-9 -13 -11 0 -20 8 -5 42 -19 75 -30 116 -39 156 -79 136 -133 -33 -87 -298
-69 -346 24 -21 40 -19 49 14 49 53 0 87 -12 96 -33 18 -39 131 -48 123 -10
-2 10 -28 25 -68 38 -117 40 -150 64 -150 113 0 19 33 55 60 65 30 11 128 7
177 -8z m438 -111 c53 -70 93 -130 88 -134 -4 -4 -29 -11 -55 -14 -42 -6 -48
-5 -62 17 -15 23 -18 23 -88 12 -64 -9 -72 -13 -80 -37 -10 -28 -17 -32 -80
-43 -23 -3 -38 -2 -38 4 0 5 23 77 51 160 56 164 48 155 136 160 30 1 39 -8
128 -125z"/>
<path d="M1845 2907 c-15 -44 -11 -50 44 -64 61 -16 81 -12 81 16 0 24 -8 30
-71 46 -38 10 -51 11 -54 2z"/>
<path d="M1465 2524 c-406 -65 -711 -337 -807 -720 -31 -126 -31 -322 0 -448
86 -342 346 -605 692 -697 121 -32 337 -33 460 -1 187 49 380 170 500 314 74
89 161 261 192 378 32 122 31 339 -1 460 -92 344 -356 608 -692 690 -82 21
-279 34 -344 24z m-26 -519 l109 -230 -127 -62 c-187 -92 -330 -157 -336 -152
-2 3 -11 32 -20 64 -50 193 -12 379 104 504 51 55 129 112 149 108 7 -1 61
-105 121 -232z m649 -121 c7 -36 10 -89 6 -134 l-6 -75 46 -69 c25 -39 49 -78
52 -88 9 -29 -14 -48 -57 -48 -44 0 -54 -11 -39 -40 8 -15 8 -25 1 -34 -6 -8
-9 -20 -6 -28 3 -7 -1 -22 -9 -33 -10 -13 -11 -27 -5 -49 11 -37 -3 -76 -33
-95 -12 -8 -50 -16 -84 -19 l-62 -5 -46 92 -46 91 17 53 c27 79 24 243 -6 322
-12 33 -23 68 -24 78 -2 13 31 33 133 81 74 36 140 64 145 62 6 -1 16 -29 23
-62z m-328 -146 c41 -93 37 -328 -6 -345 -20 -8 -132 49 -182 92 -43 38 -89
99 -110 148 l-12 28 132 64 c73 35 138 64 144 65 6 0 22 -24 34 -52z m-329
-150 c45 -98 149 -185 292 -242 32 -13 42 -25 72 -92 19 -42 35 -79 35 -83 -1
-3 -20 -15 -43 -27 -33 -16 -48 -33 -72 -78 -27 -54 -30 -68 -35 -198 l-5
-141 -32 49 c-43 68 -138 156 -204 190 -47 25 -65 29 -139 29 -69 0 -93 -4
-127 -23 -23 -12 -45 -22 -48 -22 -3 0 6 19 20 43 66 107 115 217 115 257 0
50 -10 69 -70 140 -26 30 -55 67 -65 82 l-17 28 143 69 c79 38 147 70 150 70
3 1 16 -23 30 -51z m499 -598 c0 -5 -4 -10 -10 -10 -5 0 -10 -16 -10 -35 0
-19 -4 -35 -10 -35 -5 0 -10 16 -10 35 0 19 -4 35 -10 35 -5 0 -10 5 -10 10 0
6 14 10 30 10 17 0 30 -4 30 -10z m36 -15 c3 -14 10 -25 14 -25 4 0 11 11 14
25 11 42 26 28 26 -22 -1 -44 -2 -47 -15 -29 -13 17 -15 18 -15 3 0 -25 -17
-21 -26 6 l-8 22 -7 -25 c-5 -19 -7 -14 -8 23 -1 50 14 64 25 22z"/>
<path d="M1756 314 l-16 -46 31 6 c18 3 38 6 45 6 10 0 6 12 -12 40 -15 22
-28 40 -29 40 -2 0 -10 -21 -19 -46z"/>
</g>
</svg>
